<?xml version="1.0" encoding="UTF-8" standalone="no"?>
<!DOCTYPE svg PUBLIC "-//W3C//DTD SVG 1.1//EN"
 "http://www.w3.org/Graphics/SVG/1.1/DTD/svg11.dtd">
<!-- Generated by graphviz version 2.43.0 (0)
 -->
<!-- Title: %3 Pages: 1 -->
<svg width="5217pt" height="177pt"
 viewBox="0.00 0.00 5217.38 177.38" xmlns="http://www.w3.org/2000/svg" xmlns:xlink="http://www.w3.org/1999/xlink">
<g id="graph0" class="graph" transform="scale(1 1) rotate(0) translate(4 173.38)">
<title>%3</title>
<polygon fill="white" stroke="transparent" points="-4,4 -4,-173.38 5213.38,-173.38 5213.38,4 -4,4"/>
<!-- documentation -->
<g id="node1" class="node">
<title>documentation</title>
<polygon fill="none" stroke="black" points="361.38,-168.38 238.38,-168.38 238.38,-132.38 361.38,-132.38 361.38,-168.38"/>
<text text-anchor="middle" x="299.88" y="-146.68" font-family="Times,serif" font-size="14.00">documentation</text>
</g>
<!-- scikit&#45;learn\nformat -->
<g id="node2" class="node">
<title>scikit&#45;learn\nformat</title>
<ellipse fill="none" stroke="black" cx="67.88" cy="-58.69" rx="67.76" ry="26.74"/>
<text text-anchor="middle" x="67.88" y="-62.49" font-family="Times,serif" font-size="14.00">scikit&#45;learn</text>
<text text-anchor="middle" x="67.88" y="-47.49" font-family="Times,serif" font-size="14.00">format</text>
</g>
<!-- documentation&#45;&gt;scikit&#45;learn\nformat -->
<g id="edge1" class="edge">
<title>documentation&#45;&gt;scikit&#45;learn\nformat</title>
<path fill="none" stroke="black" d="M238.34,-143C209.09,-138.4 174.19,-130.59 144.88,-117.38 129.64,-110.51 114.55,-100.2 101.82,-90.18"/>
<polygon fill="black" stroke="black" points="103.78,-87.27 93.82,-83.68 99.37,-92.7 103.78,-87.27"/>
</g>
<!-- for methods\ndevelopers -->
<g id="node3" class="node">
<title>for methods\ndevelopers</title>
<ellipse fill="none" stroke="black" cx="226.88" cy="-58.69" rx="72.66" ry="26.74"/>
<text text-anchor="middle" x="226.88" y="-62.49" font-family="Times,serif" font-size="14.00">for methods</text>
<text text-anchor="middle" x="226.88" y="-47.49" font-family="Times,serif" font-size="14.00">developers</text>
</g>
<!-- documentation&#45;&gt;for methods\ndevelopers -->
<g id="edge2" class="edge">
<title>documentation&#45;&gt;for methods\ndevelopers</title>
<path fill="none" stroke="black" d="M285.81,-132.09C276.75,-120.96 264.68,-106.13 253.83,-92.8"/>
<polygon fill="black" stroke="black" points="256.29,-90.28 247.27,-84.73 250.86,-94.7 256.29,-90.28"/>
</g>
<!-- video\ntutorials -->
<g id="node4" class="node">
<title>video\ntutorials</title>
<ellipse fill="none" stroke="black" cx="371.88" cy="-58.69" rx="54.39" ry="26.74"/>
<text text-anchor="middle" x="371.88" y="-62.49" font-family="Times,serif" font-size="14.00">video</text>
<text text-anchor="middle" x="371.88" y="-47.49" font-family="Times,serif" font-size="14.00">tutorials</text>
</g>
<!-- documentation&#45;&gt;video\ntutorials -->
<g id="edge3" class="edge">
<title>documentation&#45;&gt;video\ntutorials</title>
<path fill="none" stroke="black" d="M313.76,-132.09C322.83,-120.79 334.96,-105.68 345.79,-92.19"/>
<polygon fill="black" stroke="black" points="348.8,-94.04 352.33,-84.05 343.34,-89.66 348.8,-94.04"/>
</g>
<!-- case studies\nfor intelligent\nexp. control -->
<g id="node5" class="node">
<title>case studies\nfor intelligent\nexp. control</title>
<ellipse fill="none" stroke="black" cx="525.88" cy="-58.69" rx="81.13" ry="37.45"/>
<text text-anchor="middle" x="525.88" y="-69.99" font-family="Times,serif" font-size="14.00">case studies</text>
<text text-anchor="middle" x="525.88" y="-54.99" font-family="Times,serif" font-size="14.00">for intelligent</text>
<text text-anchor="middle" x="525.88" y="-39.99" font-family="Times,serif" font-size="14.00">exp. control</text>
</g>
<!-- documentation&#45;&gt;case studies\nfor intelligent\nexp. control -->
<g id="edge4" class="edge">
<title>documentation&#45;&gt;case studies\nfor intelligent\nexp. control</title>
<path fill="none" stroke="black" d="M361.39,-139.29C384.93,-134.28 411.69,-127.16 434.88,-117.38 448.33,-111.71 462.03,-104.14 474.58,-96.36"/>
<polygon fill="black" stroke="black" points="476.51,-99.28 483.07,-90.95 472.75,-93.37 476.51,-99.28"/>
</g>
<!-- training -->
<g id="node6" class="node">
<title>training</title>
<polygon fill="none" stroke="black" points="707.88,-168.38 633.88,-168.38 633.88,-132.38 707.88,-132.38 707.88,-168.38"/>
<text text-anchor="middle" x="670.88" y="-146.68" font-family="Times,serif" font-size="14.00">training</text>
</g>
<!-- Bonsai\ncourse -->
<g id="node7" class="node">
<title>Bonsai\ncourse</title>
<ellipse fill="none" stroke="black" cx="670.88" cy="-58.69" rx="45.92" ry="26.74"/>
<text text-anchor="middle" x="670.88" y="-62.49" font-family="Times,serif" font-size="14.00">Bonsai</text>
<text text-anchor="middle" x="670.88" y="-47.49" font-family="Times,serif" font-size="14.00">course</text>
</g>
<!-- training&#45;&gt;Bonsai\ncourse -->
<g id="edge5" class="edge">
<title>training&#45;&gt;Bonsai\ncourse</title>
<path fill="none" stroke="black" d="M670.88,-132.09C670.88,-121.83 670.88,-108.42 670.88,-95.94"/>
<polygon fill="black" stroke="black" points="674.38,-95.77 670.88,-85.77 667.38,-95.77 674.38,-95.77"/>
</g>
<!-- dissemination -->
<g id="node8" class="node">
<title>dissemination</title>
<polygon fill="none" stroke="black" points="932.88,-168.38 816.88,-168.38 816.88,-132.38 932.88,-132.38 932.88,-168.38"/>
<text text-anchor="middle" x="874.88" y="-146.68" font-family="Times,serif" font-size="14.00">dissemination</text>
</g>
<!-- Bonsai.ML\npaper -->
<g id="node9" class="node">
<title>Bonsai.ML\npaper</title>
<ellipse fill="none" stroke="black" cx="799.88" cy="-58.69" rx="65.11" ry="26.74"/>
<text text-anchor="middle" x="799.88" y="-62.49" font-family="Times,serif" font-size="14.00">Bonsai.ML</text>
<text text-anchor="middle" x="799.88" y="-47.49" font-family="Times,serif" font-size="14.00">paper</text>
</g>
<!-- dissemination&#45;&gt;Bonsai.ML\npaper -->
<g id="edge6" class="edge">
<title>dissemination&#45;&gt;Bonsai.ML\npaper</title>
<path fill="none" stroke="black" d="M860.42,-132.09C850.96,-120.77 838.29,-105.63 827,-92.12"/>
<polygon fill="black" stroke="black" points="829.64,-89.82 820.54,-84.39 824.27,-94.31 829.64,-89.82"/>
</g>
<!-- Bonsai\nconference -->
<g id="node10" class="node">
<title>Bonsai\nconference</title>
<ellipse fill="none" stroke="black" cx="949.88" cy="-58.69" rx="67.35" ry="26.74"/>
<text text-anchor="middle" x="949.88" y="-62.49" font-family="Times,serif" font-size="14.00">Bonsai</text>
<text text-anchor="middle" x="949.88" y="-47.49" font-family="Times,serif" font-size="14.00">conference</text>
</g>
<!-- dissemination&#45;&gt;Bonsai\nconference -->
<g id="edge7" class="edge">
<title>dissemination&#45;&gt;Bonsai\nconference</title>
<path fill="none" stroke="black" d="M889.34,-132.09C898.81,-120.77 911.47,-105.63 922.77,-92.12"/>
<polygon fill="black" stroke="black" points="925.5,-94.31 929.23,-84.39 920.13,-89.82 925.5,-94.31"/>
</g>
<!-- collaborations -->
<g id="node11" class="node">
<title>collaborations</title>
<polygon fill="none" stroke="black" points="2300.38,-168.38 2183.38,-168.38 2183.38,-132.38 2300.38,-132.38 2300.38,-168.38"/>
<text text-anchor="middle" x="2241.88" y="-146.68" font-family="Times,serif" font-size="14.00">collaborations</text>
</g>
<!-- RT 2&#45;photon\nCa++ imaging\nTMF,SK -->
<g id="node12" class="node">
<title>RT 2&#45;photon\nCa++ imaging\nTMF,SK</title>
<ellipse fill="none" stroke="black" cx="1120.88" cy="-58.69" rx="86.03" ry="37.45"/>
<text text-anchor="middle" x="1120.88" y="-69.99" font-family="Times,serif" font-size="14.00">RT 2&#45;photon</text>
<text text-anchor="middle" x="1120.88" y="-54.99" font-family="Times,serif" font-size="14.00">Ca++ imaging</text>
<text text-anchor="middle" x="1120.88" y="-39.99" font-family="Times,serif" font-size="14.00">TMF,SK</text>
</g>
<!-- collaborations&#45;&gt;RT 2&#45;photon\nCa++ imaging\nTMF,SK -->
<g id="edge8" class="edge">
<title>collaborations&#45;&gt;RT 2&#45;photon\nCa++ imaging\nTMF,SK</title>
<path fill="none" stroke="black" d="M2183.1,-149.29C1979,-148.74 1308.41,-144.84 1215.88,-117.38 1200.71,-112.88 1185.5,-105.34 1171.85,-97.17"/>
<polygon fill="black" stroke="black" points="1173.45,-94.04 1163.11,-91.73 1169.75,-99.99 1173.45,-94.04"/>
</g>
<!-- RT GLM&#45;HMM\nKH,IBL -->
<g id="node13" class="node">
<title>RT GLM&#45;HMM\nKH,IBL</title>
<ellipse fill="none" stroke="black" cx="1309.88" cy="-58.69" rx="84.71" ry="26.74"/>
<text text-anchor="middle" x="1309.88" y="-62.49" font-family="Times,serif" font-size="14.00">RT GLM&#45;HMM</text>
<text text-anchor="middle" x="1309.88" y="-47.49" font-family="Times,serif" font-size="14.00">KH,IBL</text>
</g>
<!-- collaborations&#45;&gt;RT GLM&#45;HMM\nKH,IBL -->
<g id="edge9" class="edge">
<title>collaborations&#45;&gt;RT GLM&#45;HMM\nKH,IBL</title>
<path fill="none" stroke="black" d="M2183.3,-148.86C2005.2,-147.04 1477.82,-139.79 1403.88,-117.38 1384.4,-111.47 1364.89,-100.53 1348.73,-89.74"/>
<polygon fill="black" stroke="black" points="1350.34,-86.6 1340.12,-83.8 1346.36,-92.36 1350.34,-86.6"/>
</g>
<!-- RT decoding HO\nTB -->
<g id="node14" class="node">
<title>RT decoding HO\nTB</title>
<ellipse fill="none" stroke="black" cx="1506.88" cy="-58.69" rx="94.09" ry="26.74"/>
<text text-anchor="middle" x="1506.88" y="-62.49" font-family="Times,serif" font-size="14.00">RT decoding HO</text>
<text text-anchor="middle" x="1506.88" y="-47.49" font-family="Times,serif" font-size="14.00">TB</text>
</g>
<!-- collaborations&#45;&gt;RT decoding HO\nTB -->
<g id="edge10" class="edge">
<title>collaborations&#45;&gt;RT decoding HO\nTB</title>
<path fill="none" stroke="black" d="M2183.36,-149.81C2047.95,-150.26 1716.44,-148.09 1609.88,-117.38 1588.92,-111.34 1567.58,-100.35 1549.8,-89.57"/>
<polygon fill="black" stroke="black" points="1551.19,-86.31 1540.85,-83.98 1547.48,-92.24 1551.19,-86.31"/>
</g>
<!-- RT forecasting\nposition,HO\nAS -->
<g id="node15" class="node">
<title>RT forecasting\nposition,HO\nAS</title>
<ellipse fill="none" stroke="black" cx="1704.88" cy="-58.69" rx="85.62" ry="37.45"/>
<text text-anchor="middle" x="1704.88" y="-69.99" font-family="Times,serif" font-size="14.00">RT forecasting</text>
<text text-anchor="middle" x="1704.88" y="-54.99" font-family="Times,serif" font-size="14.00">position,HO</text>
<text text-anchor="middle" x="1704.88" y="-39.99" font-family="Times,serif" font-size="14.00">AS</text>
</g>
<!-- collaborations&#45;&gt;RT forecasting\nposition,HO\nAS -->
<g id="edge11" class="edge">
<title>collaborations&#45;&gt;RT forecasting\nposition,HO\nAS</title>
<path fill="none" stroke="black" d="M2183.19,-148.54C2079.81,-146.49 1869.6,-139.64 1799.88,-117.38 1784.8,-112.57 1769.63,-104.91 1755.98,-96.74"/>
<polygon fill="black" stroke="black" points="1757.58,-93.61 1747.24,-91.31 1753.89,-99.56 1757.58,-93.61"/>
</g>
<!-- RT decoding\nposition\n(hippocampus)\nNB,ZJ -->
<g id="node16" class="node">
<title>RT decoding\nposition\n(hippocampus)\nNB,ZJ</title>
<ellipse fill="none" stroke="black" cx="1894.88" cy="-58.69" rx="86.03" ry="48.17"/>
<text text-anchor="middle" x="1894.88" y="-77.49" font-family="Times,serif" font-size="14.00">RT decoding</text>
<text text-anchor="middle" x="1894.88" y="-62.49" font-family="Times,serif" font-size="14.00">position</text>
<text text-anchor="middle" x="1894.88" y="-47.49" font-family="Times,serif" font-size="14.00">(hippocampus)</text>
<text text-anchor="middle" x="1894.88" y="-32.49" font-family="Times,serif" font-size="14.00">NB,ZJ</text>
</g>
<!-- collaborations&#45;&gt;RT decoding\nposition\n(hippocampus)\nNB,ZJ -->
<g id="edge12" class="edge">
<title>collaborations&#45;&gt;RT decoding\nposition\n(hippocampus)\nNB,ZJ</title>
<path fill="none" stroke="black" d="M2183.27,-148.7C2131.38,-146.51 2054.28,-139.37 1990.88,-117.38 1979.29,-113.36 1967.57,-107.81 1956.5,-101.74"/>
<polygon fill="black" stroke="black" points="1958.2,-98.67 1947.78,-96.77 1954.74,-104.76 1958.2,-98.67"/>
</g>
<!-- RT decoding\nposition\n(striatum)\nMSJ -->
<g id="node17" class="node">
<title>RT decoding\nposition\n(striatum)\nMSJ</title>
<ellipse fill="none" stroke="black" cx="2073.88" cy="-58.69" rx="74.49" ry="48.17"/>
<text text-anchor="middle" x="2073.88" y="-77.49" font-family="Times,serif" font-size="14.00">RT decoding</text>
<text text-anchor="middle" x="2073.88" y="-62.49" font-family="Times,serif" font-size="14.00">position</text>
<text text-anchor="middle" x="2073.88" y="-47.49" font-family="Times,serif" font-size="14.00">(striatum)</text>
<text text-anchor="middle" x="2073.88" y="-32.49" font-family="Times,serif" font-size="14.00">MSJ</text>
</g>
<!-- collaborations&#45;&gt;RT decoding\nposition\n(striatum)\nMSJ -->
<g id="edge13" class="edge">
<title>collaborations&#45;&gt;RT decoding\nposition\n(striatum)\nMSJ</title>
<path fill="none" stroke="black" d="M2190.19,-132.26C2178.98,-127.9 2167.35,-122.88 2156.88,-117.38 2148.03,-112.73 2139,-107.29 2130.32,-101.64"/>
<polygon fill="black" stroke="black" points="2132.03,-98.58 2121.77,-95.95 2128.15,-104.4 2132.03,-98.58"/>
</g>
<!-- RT neural\nlatents\nvisualisation\nwith LDS\nJS -->
<g id="node18" class="node">
<title>RT neural\nlatents\nvisualisation\nwith LDS\nJS</title>
<ellipse fill="none" stroke="black" cx="2241.88" cy="-58.69" rx="75.82" ry="58.88"/>
<text text-anchor="middle" x="2241.88" y="-84.99" font-family="Times,serif" font-size="14.00">RT neural</text>
<text text-anchor="middle" x="2241.88" y="-69.99" font-family="Times,serif" font-size="14.00">latents</text>
<text text-anchor="middle" x="2241.88" y="-54.99" font-family="Times,serif" font-size="14.00">visualisation</text>
<text text-anchor="middle" x="2241.88" y="-39.99" font-family="Times,serif" font-size="14.00">with LDS</text>
<text text-anchor="middle" x="2241.88" y="-24.99" font-family="Times,serif" font-size="14.00">JS</text>
</g>
<!-- collaborations&#45;&gt;RT neural\nlatents\nvisualisation\nwith LDS\nJS -->
<g id="edge14" class="edge">
<title>collaborations&#45;&gt;RT neural\nlatents\nvisualisation\nwith LDS\nJS</title>
<path fill="none" stroke="black" d="M2241.88,-132.09C2241.88,-130.72 2241.88,-129.29 2241.88,-127.82"/>
<polygon fill="black" stroke="black" points="2245.38,-127.55 2241.88,-117.55 2238.38,-127.55 2245.38,-127.55"/>
</g>
<!-- RT neural\nlatents\nvisualisation\nwith PLDS\nJS -->
<g id="node19" class="node">
<title>RT neural\nlatents\nvisualisation\nwith PLDS\nJS</title>
<ellipse fill="none" stroke="black" cx="2410.88" cy="-58.69" rx="75.82" ry="58.88"/>
<text text-anchor="middle" x="2410.88" y="-84.99" font-family="Times,serif" font-size="14.00">RT neural</text>
<text text-anchor="middle" x="2410.88" y="-69.99" font-family="Times,serif" font-size="14.00">latents</text>
<text text-anchor="middle" x="2410.88" y="-54.99" font-family="Times,serif" font-size="14.00">visualisation</text>
<text text-anchor="middle" x="2410.88" y="-39.99" font-family="Times,serif" font-size="14.00">with PLDS</text>
<text text-anchor="middle" x="2410.88" y="-24.99" font-family="Times,serif" font-size="14.00">JS</text>
</g>
<!-- collaborations&#45;&gt;RT neural\nlatents\nvisualisation\nwith PLDS\nJS -->
<g id="edge15" class="edge">
<title>collaborations&#45;&gt;RT neural\nlatents\nvisualisation\nwith PLDS\nJS</title>
<path fill="none" stroke="black" d="M2293.55,-132.21C2304.76,-127.86 2316.4,-122.85 2326.88,-117.38 2333.83,-113.75 2340.89,-109.66 2347.81,-105.36"/>
<polygon fill="black" stroke="black" points="2349.94,-108.15 2356.49,-99.83 2346.18,-102.25 2349.94,-108.15"/>
</g>
<!-- close&#45;loop\noptogenetics\ncontrol\nGS -->
<g id="node20" class="node">
<title>close&#45;loop\noptogenetics\ncontrol\nGS</title>
<ellipse fill="none" stroke="black" cx="2580.88" cy="-58.69" rx="76.24" ry="48.17"/>
<text text-anchor="middle" x="2580.88" y="-77.49" font-family="Times,serif" font-size="14.00">close&#45;loop</text>
<text text-anchor="middle" x="2580.88" y="-62.49" font-family="Times,serif" font-size="14.00">optogenetics</text>
<text text-anchor="middle" x="2580.88" y="-47.49" font-family="Times,serif" font-size="14.00">control</text>
<text text-anchor="middle" x="2580.88" y="-32.49" font-family="Times,serif" font-size="14.00">GS</text>
</g>
<!-- collaborations&#45;&gt;close&#45;loop\noptogenetics\ncontrol\nGS -->
<g id="edge16" class="edge">
<title>collaborations&#45;&gt;close&#45;loop\noptogenetics\ncontrol\nGS</title>
<path fill="none" stroke="black" d="M2300.48,-149.69C2353.19,-148.19 2431.95,-141.5 2495.88,-117.38 2505.97,-113.57 2516.04,-108.34 2525.54,-102.58"/>
<polygon fill="black" stroke="black" points="2527.51,-105.47 2534.08,-97.16 2523.76,-99.56 2527.51,-105.47"/>
</g>
<!-- RT decoding\nsleep stage\nfrom LFP\nJH -->
<g id="node21" class="node">
<title>RT decoding\nsleep stage\nfrom LFP\nJH</title>
<ellipse fill="none" stroke="black" cx="2749.88" cy="-58.69" rx="74.49" ry="48.17"/>
<text text-anchor="middle" x="2749.88" y="-77.49" font-family="Times,serif" font-size="14.00">RT decoding</text>
<text text-anchor="middle" x="2749.88" y="-62.49" font-family="Times,serif" font-size="14.00">sleep stage</text>
<text text-anchor="middle" x="2749.88" y="-47.49" font-family="Times,serif" font-size="14.00">from LFP</text>
<text text-anchor="middle" x="2749.88" y="-32.49" font-family="Times,serif" font-size="14.00">JH</text>
</g>
<!-- collaborations&#45;&gt;RT decoding\nsleep stage\nfrom LFP\nJH -->
<g id="edge17" class="edge">
<title>collaborations&#45;&gt;RT decoding\nsleep stage\nfrom LFP\nJH</title>
<path fill="none" stroke="black" d="M2300.68,-148.71C2400.86,-146.93 2600.17,-140.52 2665.88,-117.38 2676.23,-113.74 2686.5,-108.47 2696.11,-102.59"/>
<polygon fill="black" stroke="black" points="2698.22,-105.39 2704.74,-97.04 2694.43,-99.5 2698.22,-105.39"/>
</g>
<!-- RT HMM\nalzheimer mice\nLK -->
<g id="node22" class="node">
<title>RT HMM\nalzheimer mice\nLK</title>
<ellipse fill="none" stroke="black" cx="2930.88" cy="-58.69" rx="88.28" ry="37.45"/>
<text text-anchor="middle" x="2930.88" y="-69.99" font-family="Times,serif" font-size="14.00">RT HMM</text>
<text text-anchor="middle" x="2930.88" y="-54.99" font-family="Times,serif" font-size="14.00">alzheimer mice</text>
<text text-anchor="middle" x="2930.88" y="-39.99" font-family="Times,serif" font-size="14.00">LK</text>
</g>
<!-- collaborations&#45;&gt;RT HMM\nalzheimer mice\nLK -->
<g id="edge18" class="edge">
<title>collaborations&#45;&gt;RT HMM\nalzheimer mice\nLK</title>
<path fill="none" stroke="black" d="M2300.71,-149.72C2429.89,-149.89 2734.63,-147.03 2832.88,-117.38 2848.53,-112.66 2864.32,-104.95 2878.5,-96.69"/>
<polygon fill="black" stroke="black" points="2880.36,-99.66 2887.12,-91.49 2876.75,-93.66 2880.36,-99.66"/>
</g>
<!-- RT learning\nof NN learning dynamics\nSL -->
<g id="node23" class="node">
<title>RT learning\nof NN learning dynamics\nSL</title>
<ellipse fill="none" stroke="black" cx="3174.88" cy="-58.69" rx="137.36" ry="37.45"/>
<text text-anchor="middle" x="3174.88" y="-69.99" font-family="Times,serif" font-size="14.00">RT learning</text>
<text text-anchor="middle" x="3174.88" y="-54.99" font-family="Times,serif" font-size="14.00">of NN learning dynamics</text>
<text text-anchor="middle" x="3174.88" y="-39.99" font-family="Times,serif" font-size="14.00">SL</text>
</g>
<!-- collaborations&#45;&gt;RT learning\nof NN learning dynamics\nSL -->
<g id="edge19" class="edge">
<title>collaborations&#45;&gt;RT learning\nof NN learning dynamics\nSL</title>
<path fill="none" stroke="black" d="M2300.61,-149.51C2458.43,-149.46 2889.14,-146.57 3027.88,-117.38 3051.47,-112.42 3076.2,-104.06 3098.51,-95.22"/>
<polygon fill="black" stroke="black" points="3099.95,-98.41 3107.9,-91.41 3097.32,-91.92 3099.95,-98.41"/>
</g>
<!-- RT HMM+Logistic Regression\npredicting visit duration\nAeon -->
<g id="node24" class="node">
<title>RT HMM+Logistic Regression\npredicting visit duration\nAeon</title>
<ellipse fill="none" stroke="black" cx="3494.88" cy="-58.69" rx="164.51" ry="37.45"/>
<text text-anchor="middle" x="3494.88" y="-69.99" font-family="Times,serif" font-size="14.00">RT HMM+Logistic Regression</text>
<text text-anchor="middle" x="3494.88" y="-54.99" font-family="Times,serif" font-size="14.00">predicting visit duration</text>
<text text-anchor="middle" x="3494.88" y="-39.99" font-family="Times,serif" font-size="14.00">Aeon</text>
</g>
<!-- collaborations&#45;&gt;RT HMM+Logistic Regression\npredicting visit duration\nAeon -->
<g id="edge20" class="edge">
<title>collaborations&#45;&gt;RT HMM+Logistic Regression\npredicting visit duration\nAeon</title>
<path fill="none" stroke="black" d="M2300.44,-149.88C2495.55,-151.18 3122.38,-152.46 3320.88,-117.38 3348.93,-112.42 3378.64,-103.88 3405.42,-94.86"/>
<polygon fill="black" stroke="black" points="3406.82,-98.08 3415.14,-91.53 3404.54,-91.46 3406.82,-98.08"/>
</g>
<!-- integrations -->
<g id="node25" class="node">
<title>integrations</title>
<polygon fill="none" stroke="black" points="4428.88,-169.38 4312.88,-169.38 4312.88,-131.38 4428.88,-131.38 4428.88,-169.38"/>
<text text-anchor="start" x="4324.88" y="-154.18" font-family="Times,serif" font-size="14.00">integrations/</text>
<text text-anchor="start" x="4320.88" y="-139.18" font-family="Times,serif" font-size="14.00">developments</text>
</g>
<!-- RT 2&#45;photon\nCa++ imaging -->
<g id="node26" class="node">
<title>RT 2&#45;photon\nCa++ imaging</title>
<ellipse fill="none" stroke="black" cx="3763.88" cy="-58.69" rx="86.03" ry="26.74"/>
<text text-anchor="middle" x="3763.88" y="-62.49" font-family="Times,serif" font-size="14.00">RT 2&#45;photon</text>
<text text-anchor="middle" x="3763.88" y="-47.49" font-family="Times,serif" font-size="14.00">Ca++ imaging</text>
</g>
<!-- integrations&#45;&gt;RT 2&#45;photon\nCa++ imaging -->
<g id="edge21" class="edge">
<title>integrations&#45;&gt;RT 2&#45;photon\nCa++ imaging</title>
<path fill="none" stroke="black" d="M4312.65,-149.19C4197.11,-148.25 3942.84,-143.21 3859.88,-117.38 3840.12,-111.23 3820.19,-100.22 3803.66,-89.45"/>
<polygon fill="black" stroke="black" points="3805.59,-86.54 3795.34,-83.87 3801.69,-92.35 3805.59,-86.54"/>
</g>
<!-- RT LFP\nprocessing -->
<g id="node27" class="node">
<title>RT LFP\nprocessing</title>
<ellipse fill="none" stroke="black" cx="3934.88" cy="-58.69" rx="66.44" ry="26.74"/>
<text text-anchor="middle" x="3934.88" y="-62.49" font-family="Times,serif" font-size="14.00">RT LFP</text>
<text text-anchor="middle" x="3934.88" y="-47.49" font-family="Times,serif" font-size="14.00">processing</text>
</g>
<!-- integrations&#45;&gt;RT LFP\nprocessing -->
<g id="edge22" class="edge">
<title>integrations&#45;&gt;RT LFP\nprocessing</title>
<path fill="none" stroke="black" d="M4312.64,-148.16C4224.94,-145.67 4063.51,-138.31 4009.88,-117.38 3994.32,-111.31 3979.28,-100.95 3966.81,-90.68"/>
<polygon fill="black" stroke="black" points="3968.87,-87.83 3959,-83.98 3964.31,-93.15 3968.87,-87.83"/>
</g>
<!-- RT GLM&#45;HMM -->
<g id="node28" class="node">
<title>RT GLM&#45;HMM</title>
<ellipse fill="none" stroke="black" cx="4096.88" cy="-58.69" rx="77.99" ry="18"/>
<text text-anchor="middle" x="4096.88" y="-54.99" font-family="Times,serif" font-size="14.00">RT GLM&#45;HMM</text>
</g>
<!-- integrations&#45;&gt;RT GLM&#45;HMM -->
<g id="edge23" class="edge">
<title>integrations&#45;&gt;RT GLM&#45;HMM</title>
<path fill="none" stroke="black" d="M4312.75,-145.68C4274.96,-141.77 4225.22,-133.77 4183.88,-117.38 4162.51,-108.9 4140.95,-94.66 4124.64,-82.44"/>
<polygon fill="black" stroke="black" points="4126.68,-79.6 4116.62,-76.28 4122.42,-85.15 4126.68,-79.6"/>
</g>
<!-- CLOCTools -->
<g id="node29" class="node">
<title>CLOCTools</title>
<ellipse fill="none" stroke="black" cx="4254.88" cy="-58.69" rx="61.99" ry="18"/>
<text text-anchor="middle" x="4254.88" y="-54.99" font-family="Times,serif" font-size="14.00">CLOCTools</text>
</g>
<!-- integrations&#45;&gt;CLOCTools -->
<g id="edge24" class="edge">
<title>integrations&#45;&gt;CLOCTools</title>
<path fill="none" stroke="black" d="M4344.5,-131.05C4338.34,-126.65 4331.83,-121.91 4325.88,-117.38 4311.12,-106.15 4295.05,-93.17 4281.94,-82.36"/>
<polygon fill="black" stroke="black" points="4284.14,-79.63 4274.2,-75.95 4279.67,-85.02 4284.14,-79.63"/>
</g>
<!-- PLDS -->
<g id="node30" class="node">
<title>PLDS</title>
<ellipse fill="none" stroke="black" cx="4370.88" cy="-58.69" rx="36.29" ry="18"/>
<text text-anchor="middle" x="4370.88" y="-54.99" font-family="Times,serif" font-size="14.00">PLDS</text>
</g>
<!-- integrations&#45;&gt;PLDS -->
<g id="edge25" class="edge">
<title>integrations&#45;&gt;PLDS</title>
<path fill="none" stroke="black" d="M4370.88,-131.23C4370.88,-118.58 4370.88,-101.49 4370.88,-87.18"/>
<polygon fill="black" stroke="black" points="4374.38,-86.9 4370.88,-76.9 4367.38,-86.9 4374.38,-86.9"/>
</g>
<!-- Infer.NET -->
<g id="node31" class="node">
<title>Infer.NET</title>
<ellipse fill="none" stroke="black" cx="5146.88" cy="-58.69" rx="55.79" ry="18"/>
<text text-anchor="middle" x="5146.88" y="-54.99" font-family="Times,serif" font-size="14.00">Infer.NET</text>
</g>
<!-- integrations&#45;&gt;Infer.NET -->
<g id="edge26" class="edge">
<title>integrations&#45;&gt;Infer.NET</title>
<path fill="none" stroke="black" d="M4429.07,-148.98C4588.1,-147.59 5022.2,-141.59 5081.88,-117.38 5099.48,-110.24 5115.49,-96.17 5127.21,-83.72"/>
<polygon fill="black" stroke="black" points="5129.85,-86.02 5133.94,-76.25 5124.65,-81.34 5129.85,-86.02"/>
</g>
<!-- real&#45;time\nspike sorting -->
<g id="node32" class="node">
<title>real&#45;time\nspike sorting</title>
<ellipse fill="none" stroke="black" cx="4502.88" cy="-58.69" rx="77.56" ry="26.74"/>
<text text-anchor="middle" x="4502.88" y="-62.49" font-family="Times,serif" font-size="14.00">real&#45;time</text>
<text text-anchor="middle" x="4502.88" y="-47.49" font-family="Times,serif" font-size="14.00">spike sorting</text>
</g>
<!-- integrations&#45;&gt;real&#45;time\nspike sorting -->
<g id="edge27" class="edge">
<title>integrations&#45;&gt;real&#45;time\nspike sorting</title>
<path fill="none" stroke="black" d="M4397.59,-131.23C4415.6,-118.99 4439.75,-102.59 4460.37,-88.57"/>
<polygon fill="black" stroke="black" points="4462.37,-91.45 4468.67,-82.93 4458.44,-85.66 4462.37,-91.45"/>
</g>
<!-- RT adaptive estimation\nof psychometric curves -->
<g id="node33" class="node">
<title>RT adaptive estimation\nof psychometric curves</title>
<ellipse fill="none" stroke="black" cx="4726.88" cy="-58.69" rx="128.89" ry="26.74"/>
<text text-anchor="middle" x="4726.88" y="-62.49" font-family="Times,serif" font-size="14.00">RT adaptive estimation</text>
<text text-anchor="middle" x="4726.88" y="-47.49" font-family="Times,serif" font-size="14.00">of psychometric curves</text>
</g>
<!-- integrations&#45;&gt;RT adaptive estimation\nof psychometric curves -->
<g id="edge28" class="edge">
<title>integrations&#45;&gt;RT adaptive estimation\nof psychometric curves</title>
<path fill="none" stroke="black" d="M4428.89,-144.94C4473.52,-140.56 4536.4,-132.29 4589.88,-117.38 4616.66,-109.92 4645.15,-98.52 4669.18,-87.83"/>
<polygon fill="black" stroke="black" points="4670.83,-90.92 4678.5,-83.61 4667.94,-84.54 4670.83,-90.92"/>
</g>
<!-- RT decoding\nfrom Neuropixels -->
<g id="node34" class="node">
<title>RT decoding\nfrom Neuropixels</title>
<ellipse fill="none" stroke="black" cx="4972.88" cy="-58.69" rx="99.9" ry="26.74"/>
<text text-anchor="middle" x="4972.88" y="-62.49" font-family="Times,serif" font-size="14.00">RT decoding</text>
<text text-anchor="middle" x="4972.88" y="-47.49" font-family="Times,serif" font-size="14.00">from Neuropixels</text>
</g>
<!-- integrations&#45;&gt;RT decoding\nfrom Neuropixels -->
<g id="edge29" class="edge">
<title>integrations&#45;&gt;RT decoding\nfrom Neuropixels</title>
<path fill="none" stroke="black" d="M4429.23,-148.69C4541.73,-146.84 4784.61,-140.26 4864.88,-117.38 4886.94,-111.09 4909.59,-99.86 4928.42,-88.96"/>
<polygon fill="black" stroke="black" points="4930.25,-91.94 4937.06,-83.83 4926.67,-85.92 4930.25,-91.94"/>
</g>
<!-- maintainability -->
<g id="node35" class="node">
<title>maintainability</title>
<polygon fill="none" stroke="black" points="5209.38,-168.38 5084.38,-168.38 5084.38,-132.38 5209.38,-132.38 5209.38,-168.38"/>
<text text-anchor="middle" x="5146.88" y="-146.68" font-family="Times,serif" font-size="14.00">maintainability</text>
</g>
<!-- maintainability&#45;&gt;Infer.NET -->
<g id="edge30" class="edge">
<title>maintainability&#45;&gt;Infer.NET</title>
<path fill="none" stroke="black" d="M5146.88,-132.09C5146.88,-119.31 5146.88,-101.65 5146.88,-86.98"/>
<polygon fill="black" stroke="black" points="5150.38,-86.93 5146.88,-76.93 5143.38,-86.93 5150.38,-86.93"/>
</g>
</g>
</svg>
