<?xml version="1.0" encoding="UTF-8" standalone="no"?>
<!DOCTYPE svg PUBLIC "-//W3C//DTD SVG 1.1//EN"
 "http://www.w3.org/Graphics/SVG/1.1/DTD/svg11.dtd">
<!-- Generated by graphviz version 2.43.0 (0)
 -->
<!-- Title: %3 Pages: 1 -->
<svg width="3762pt" height="154pt"
 viewBox="0.00 0.00 3762.38 154.17" xmlns="http://www.w3.org/2000/svg" xmlns:xlink="http://www.w3.org/1999/xlink">
<g id="graph0" class="graph" transform="scale(1 1) rotate(0) translate(4 150.17)">
<title>%3</title>
<polygon fill="white" stroke="transparent" points="-4,4 -4,-150.17 3758.38,-150.17 3758.38,4 -4,4"/>
<!-- documentation -->
<g id="node1" class="node">
<title>documentation</title>
<polygon fill="none" stroke="black" points="361.38,-146.17 238.38,-146.17 238.38,-110.17 361.38,-110.17 361.38,-146.17"/>
<text text-anchor="middle" x="299.88" y="-124.47" font-family="Times,serif" font-size="14.00">documentation</text>
</g>
<!-- scikit&#45;learn\nformat -->
<g id="node2" class="node">
<title>scikit&#45;learn\nformat</title>
<ellipse fill="none" stroke="black" cx="67.88" cy="-48.08" rx="67.76" ry="26.74"/>
<text text-anchor="middle" x="67.88" y="-51.88" font-family="Times,serif" font-size="14.00">scikit&#45;learn</text>
<text text-anchor="middle" x="67.88" y="-36.88" font-family="Times,serif" font-size="14.00">format</text>
</g>
<!-- documentation&#45;&gt;scikit&#45;learn\nformat -->
<g id="edge1" class="edge">
<title>documentation&#45;&gt;scikit&#45;learn\nformat</title>
<path fill="none" stroke="black" d="M238.11,-119.9C209.13,-115.22 174.53,-107.77 144.88,-96.17 132.32,-91.25 119.51,-84.32 108.03,-77.28"/>
<polygon fill="black" stroke="black" points="109.85,-74.3 99.53,-71.91 106.11,-80.21 109.85,-74.3"/>
</g>
<!-- for methods\ndevelopers -->
<g id="node3" class="node">
<title>for methods\ndevelopers</title>
<ellipse fill="none" stroke="black" cx="226.88" cy="-48.08" rx="72.66" ry="26.74"/>
<text text-anchor="middle" x="226.88" y="-51.88" font-family="Times,serif" font-size="14.00">for methods</text>
<text text-anchor="middle" x="226.88" y="-36.88" font-family="Times,serif" font-size="14.00">developers</text>
</g>
<!-- documentation&#45;&gt;for methods\ndevelopers -->
<g id="edge2" class="edge">
<title>documentation&#45;&gt;for methods\ndevelopers</title>
<path fill="none" stroke="black" d="M283.68,-109.84C275.78,-101.39 266.02,-90.95 256.83,-81.12"/>
<polygon fill="black" stroke="black" points="259.35,-78.68 249.96,-73.77 254.23,-83.46 259.35,-78.68"/>
</g>
<!-- video\ntutorials -->
<g id="node4" class="node">
<title>video\ntutorials</title>
<ellipse fill="none" stroke="black" cx="371.88" cy="-48.08" rx="54.39" ry="26.74"/>
<text text-anchor="middle" x="371.88" y="-51.88" font-family="Times,serif" font-size="14.00">video</text>
<text text-anchor="middle" x="371.88" y="-36.88" font-family="Times,serif" font-size="14.00">tutorials</text>
</g>
<!-- documentation&#45;&gt;video\ntutorials -->
<g id="edge3" class="edge">
<title>documentation&#45;&gt;video\ntutorials</title>
<path fill="none" stroke="black" d="M315.86,-109.84C323.85,-101.17 333.77,-90.42 343.03,-80.37"/>
<polygon fill="black" stroke="black" points="345.73,-82.6 349.94,-72.88 340.59,-77.86 345.73,-82.6"/>
</g>
<!-- case studies\nfor intelligent\nexp. control -->
<g id="node5" class="node">
<title>case studies\nfor intelligent\nexp. control</title>
<ellipse fill="none" stroke="black" cx="525.88" cy="-48.08" rx="81.13" ry="37.45"/>
<text text-anchor="middle" x="525.88" y="-59.38" font-family="Times,serif" font-size="14.00">case studies</text>
<text text-anchor="middle" x="525.88" y="-44.38" font-family="Times,serif" font-size="14.00">for intelligent</text>
<text text-anchor="middle" x="525.88" y="-29.38" font-family="Times,serif" font-size="14.00">exp. control</text>
</g>
<!-- documentation&#45;&gt;case studies\nfor intelligent\nexp. control -->
<g id="edge4" class="edge">
<title>documentation&#45;&gt;case studies\nfor intelligent\nexp. control</title>
<path fill="none" stroke="black" d="M361.65,-116.4C384.98,-111.45 411.52,-104.74 434.88,-96.17 445.47,-92.28 456.4,-87.43 466.85,-82.33"/>
<polygon fill="black" stroke="black" points="468.52,-85.41 475.89,-77.81 465.38,-79.16 468.52,-85.41"/>
</g>
<!-- training -->
<g id="node6" class="node">
<title>training</title>
<polygon fill="none" stroke="black" points="707.88,-146.17 633.88,-146.17 633.88,-110.17 707.88,-110.17 707.88,-146.17"/>
<text text-anchor="middle" x="670.88" y="-124.47" font-family="Times,serif" font-size="14.00">training</text>
</g>
<!-- Bonsai\ncourse -->
<g id="node7" class="node">
<title>Bonsai\ncourse</title>
<ellipse fill="none" stroke="black" cx="670.88" cy="-48.08" rx="45.92" ry="26.74"/>
<text text-anchor="middle" x="670.88" y="-51.88" font-family="Times,serif" font-size="14.00">Bonsai</text>
<text text-anchor="middle" x="670.88" y="-36.88" font-family="Times,serif" font-size="14.00">course</text>
</g>
<!-- training&#45;&gt;Bonsai\ncourse -->
<g id="edge5" class="edge">
<title>training&#45;&gt;Bonsai\ncourse</title>
<path fill="none" stroke="black" d="M670.88,-109.84C670.88,-102.55 670.88,-93.79 670.88,-85.22"/>
<polygon fill="black" stroke="black" points="674.38,-84.97 670.88,-74.97 667.38,-84.97 674.38,-84.97"/>
</g>
<!-- dissemination -->
<g id="node8" class="node">
<title>dissemination</title>
<polygon fill="none" stroke="black" points="932.88,-146.17 816.88,-146.17 816.88,-110.17 932.88,-110.17 932.88,-146.17"/>
<text text-anchor="middle" x="874.88" y="-124.47" font-family="Times,serif" font-size="14.00">dissemination</text>
</g>
<!-- Bonsai.ML\npaper -->
<g id="node9" class="node">
<title>Bonsai.ML\npaper</title>
<ellipse fill="none" stroke="black" cx="799.88" cy="-48.08" rx="65.11" ry="26.74"/>
<text text-anchor="middle" x="799.88" y="-51.88" font-family="Times,serif" font-size="14.00">Bonsai.ML</text>
<text text-anchor="middle" x="799.88" y="-36.88" font-family="Times,serif" font-size="14.00">paper</text>
</g>
<!-- dissemination&#45;&gt;Bonsai.ML\npaper -->
<g id="edge6" class="edge">
<title>dissemination&#45;&gt;Bonsai.ML\npaper</title>
<path fill="none" stroke="black" d="M858.24,-109.84C850.05,-101.32 839.92,-90.77 830.42,-80.87"/>
<polygon fill="black" stroke="black" points="832.76,-78.26 823.31,-73.47 827.71,-83.11 832.76,-78.26"/>
</g>
<!-- Bonsai\nconference -->
<g id="node10" class="node">
<title>Bonsai\nconference</title>
<ellipse fill="none" stroke="black" cx="949.88" cy="-48.08" rx="67.35" ry="26.74"/>
<text text-anchor="middle" x="949.88" y="-51.88" font-family="Times,serif" font-size="14.00">Bonsai</text>
<text text-anchor="middle" x="949.88" y="-36.88" font-family="Times,serif" font-size="14.00">conference</text>
</g>
<!-- dissemination&#45;&gt;Bonsai\nconference -->
<g id="edge7" class="edge">
<title>dissemination&#45;&gt;Bonsai\nconference</title>
<path fill="none" stroke="black" d="M891.53,-109.84C899.71,-101.32 909.84,-90.77 919.35,-80.87"/>
<polygon fill="black" stroke="black" points="922.05,-83.11 926.46,-73.47 917.01,-78.26 922.05,-83.11"/>
</g>
<!-- collaborations -->
<g id="node11" class="node">
<title>collaborations</title>
<polygon fill="none" stroke="black" points="2021.38,-146.17 1904.38,-146.17 1904.38,-110.17 2021.38,-110.17 2021.38,-146.17"/>
<text text-anchor="middle" x="1962.88" y="-124.47" font-family="Times,serif" font-size="14.00">collaborations</text>
</g>
<!-- RT forecasting\nposition,HO\nAS -->
<g id="node12" class="node">
<title>RT forecasting\nposition,HO\nAS</title>
<ellipse fill="none" stroke="black" cx="1120.88" cy="-48.08" rx="85.62" ry="37.45"/>
<text text-anchor="middle" x="1120.88" y="-59.38" font-family="Times,serif" font-size="14.00">RT forecasting</text>
<text text-anchor="middle" x="1120.88" y="-44.38" font-family="Times,serif" font-size="14.00">position,HO</text>
<text text-anchor="middle" x="1120.88" y="-29.38" font-family="Times,serif" font-size="14.00">AS</text>
</g>
<!-- collaborations&#45;&gt;RT forecasting\nposition,HO\nAS -->
<g id="edge8" class="edge">
<title>collaborations&#45;&gt;RT forecasting\nposition,HO\nAS</title>
<path fill="none" stroke="black" d="M1904.33,-126.16C1739.77,-123.11 1280.79,-113.2 1214.88,-96.17 1203.15,-93.13 1191.18,-88.51 1179.88,-83.32"/>
<polygon fill="black" stroke="black" points="1181.1,-80.02 1170.57,-78.85 1178.07,-86.33 1181.1,-80.02"/>
</g>
<!-- RT HMM+Logistic Regression\npredicting visit duration\nAeon -->
<g id="node13" class="node">
<title>RT HMM+Logistic Regression\npredicting visit duration\nAeon</title>
<ellipse fill="none" stroke="black" cx="1388.88" cy="-48.08" rx="164.51" ry="37.45"/>
<text text-anchor="middle" x="1388.88" y="-59.38" font-family="Times,serif" font-size="14.00">RT HMM+Logistic Regression</text>
<text text-anchor="middle" x="1388.88" y="-44.38" font-family="Times,serif" font-size="14.00">predicting visit duration</text>
<text text-anchor="middle" x="1388.88" y="-29.38" font-family="Times,serif" font-size="14.00">Aeon</text>
</g>
<!-- collaborations&#45;&gt;RT HMM+Logistic Regression\npredicting visit duration\nAeon -->
<g id="edge9" class="edge">
<title>collaborations&#45;&gt;RT HMM+Logistic Regression\npredicting visit duration\nAeon</title>
<path fill="none" stroke="black" d="M1904.35,-126.09C1825.87,-123.86 1682.46,-117.04 1561.88,-96.17 1539.84,-92.35 1516.54,-86.97 1494.43,-81.2"/>
<polygon fill="black" stroke="black" points="1495.26,-77.79 1484.69,-78.61 1493.46,-84.56 1495.26,-77.79"/>
</g>
<!-- RT decoding HO\nfrom restrosplenial cortex\nDC,TB -->
<g id="node14" class="node">
<title>RT decoding HO\nfrom restrosplenial cortex\nDC,TB</title>
<ellipse fill="none" stroke="black" cx="1714.88" cy="-48.08" rx="143.59" ry="37.45"/>
<text text-anchor="middle" x="1714.88" y="-59.38" font-family="Times,serif" font-size="14.00">RT decoding HO</text>
<text text-anchor="middle" x="1714.88" y="-44.38" font-family="Times,serif" font-size="14.00">from restrosplenial cortex</text>
<text text-anchor="middle" x="1714.88" y="-29.38" font-family="Times,serif" font-size="14.00">DC,TB</text>
</g>
<!-- collaborations&#45;&gt;RT decoding HO\nfrom restrosplenial cortex\nDC,TB -->
<g id="edge10" class="edge">
<title>collaborations&#45;&gt;RT decoding HO\nfrom restrosplenial cortex\nDC,TB</title>
<path fill="none" stroke="black" d="M1908.76,-110.13C1881.25,-101.47 1846.93,-90.66 1814.84,-80.55"/>
<polygon fill="black" stroke="black" points="1815.55,-77.11 1804.96,-77.44 1813.45,-83.79 1815.55,-77.11"/>
</g>
<!-- RT decoding\nposition\n(hippocampus)\nED,JO -->
<g id="node15" class="node">
<title>RT decoding\nposition\n(hippocampus)\nED,JO</title>
<ellipse fill="none" stroke="black" cx="1962.88" cy="-48.08" rx="86.03" ry="48.17"/>
<text text-anchor="middle" x="1962.88" y="-66.88" font-family="Times,serif" font-size="14.00">RT decoding</text>
<text text-anchor="middle" x="1962.88" y="-51.88" font-family="Times,serif" font-size="14.00">position</text>
<text text-anchor="middle" x="1962.88" y="-36.88" font-family="Times,serif" font-size="14.00">(hippocampus)</text>
<text text-anchor="middle" x="1962.88" y="-21.88" font-family="Times,serif" font-size="14.00">ED,JO</text>
</g>
<!-- collaborations&#45;&gt;RT decoding\nposition\n(hippocampus)\nED,JO -->
<g id="edge11" class="edge">
<title>collaborations&#45;&gt;RT decoding\nposition\n(hippocampus)\nED,JO</title>
<path fill="none" stroke="black" d="M1962.88,-109.84C1962.88,-108.8 1962.88,-107.74 1962.88,-106.65"/>
<polygon fill="black" stroke="black" points="1966.38,-106.31 1962.88,-96.31 1959.38,-106.31 1966.38,-106.31"/>
</g>
<!-- RT decoding\nposition\n(striatum)\nET,MSJ -->
<g id="node16" class="node">
<title>RT decoding\nposition\n(striatum)\nET,MSJ</title>
<ellipse fill="none" stroke="black" cx="2141.88" cy="-48.08" rx="74.49" ry="48.17"/>
<text text-anchor="middle" x="2141.88" y="-66.88" font-family="Times,serif" font-size="14.00">RT decoding</text>
<text text-anchor="middle" x="2141.88" y="-51.88" font-family="Times,serif" font-size="14.00">position</text>
<text text-anchor="middle" x="2141.88" y="-36.88" font-family="Times,serif" font-size="14.00">(striatum)</text>
<text text-anchor="middle" x="2141.88" y="-21.88" font-family="Times,serif" font-size="14.00">ET,MSJ</text>
</g>
<!-- collaborations&#45;&gt;RT decoding\nposition\n(striatum)\nET,MSJ -->
<g id="edge12" class="edge">
<title>collaborations&#45;&gt;RT decoding\nposition\n(striatum)\nET,MSJ</title>
<path fill="none" stroke="black" d="M2021.33,-110.09C2033.57,-105.96 2046.28,-101.25 2057.88,-96.17 2064.88,-93.1 2072.06,-89.63 2079.12,-85.99"/>
<polygon fill="black" stroke="black" points="2080.78,-89.07 2088,-81.32 2077.52,-82.88 2080.78,-89.07"/>
</g>
<!-- RT neural\nlatents\nvisualisation\nJS -->
<g id="node17" class="node">
<title>RT neural\nlatents\nvisualisation\nJS</title>
<ellipse fill="none" stroke="black" cx="2309.88" cy="-48.08" rx="75.82" ry="48.17"/>
<text text-anchor="middle" x="2309.88" y="-66.88" font-family="Times,serif" font-size="14.00">RT neural</text>
<text text-anchor="middle" x="2309.88" y="-51.88" font-family="Times,serif" font-size="14.00">latents</text>
<text text-anchor="middle" x="2309.88" y="-36.88" font-family="Times,serif" font-size="14.00">visualisation</text>
<text text-anchor="middle" x="2309.88" y="-21.88" font-family="Times,serif" font-size="14.00">JS</text>
</g>
<!-- collaborations&#45;&gt;RT neural\nlatents\nvisualisation\nJS -->
<g id="edge13" class="edge">
<title>collaborations&#45;&gt;RT neural\nlatents\nvisualisation\nJS</title>
<path fill="none" stroke="black" d="M2021.49,-126.67C2075.52,-124.72 2157.31,-117.95 2224.88,-96.17 2232.45,-93.73 2240.1,-90.59 2247.57,-87.1"/>
<polygon fill="black" stroke="black" points="2249.47,-90.07 2256.89,-82.51 2246.37,-83.79 2249.47,-90.07"/>
</g>
<!-- close&#45;loop\noptogenetics\ncontrol\nGS -->
<g id="node18" class="node">
<title>close&#45;loop\noptogenetics\ncontrol\nGS</title>
<ellipse fill="none" stroke="black" cx="2479.88" cy="-48.08" rx="76.24" ry="48.17"/>
<text text-anchor="middle" x="2479.88" y="-66.88" font-family="Times,serif" font-size="14.00">close&#45;loop</text>
<text text-anchor="middle" x="2479.88" y="-51.88" font-family="Times,serif" font-size="14.00">optogenetics</text>
<text text-anchor="middle" x="2479.88" y="-36.88" font-family="Times,serif" font-size="14.00">control</text>
<text text-anchor="middle" x="2479.88" y="-21.88" font-family="Times,serif" font-size="14.00">GS</text>
</g>
<!-- collaborations&#45;&gt;close&#45;loop\noptogenetics\ncontrol\nGS -->
<g id="edge14" class="edge">
<title>collaborations&#45;&gt;close&#45;loop\noptogenetics\ncontrol\nGS</title>
<path fill="none" stroke="black" d="M2021.77,-126.08C2123.23,-123.67 2326.68,-116.43 2394.88,-96.17 2402.5,-93.9 2410.19,-90.88 2417.68,-87.45"/>
<polygon fill="black" stroke="black" points="2419.55,-90.43 2427.02,-82.92 2416.49,-84.13 2419.55,-90.43"/>
</g>
<!-- integrations -->
<g id="node19" class="node">
<title>integrations</title>
<polygon fill="none" stroke="black" points="3199.88,-146.17 3095.88,-146.17 3095.88,-110.17 3199.88,-110.17 3199.88,-146.17"/>
<text text-anchor="middle" x="3147.88" y="-124.47" font-family="Times,serif" font-size="14.00">integrations</text>
</g>
<!-- deep\nforecasters -->
<g id="node20" class="node">
<title>deep\nforecasters</title>
<ellipse fill="none" stroke="black" cx="2642.88" cy="-48.08" rx="68.68" ry="26.74"/>
<text text-anchor="middle" x="2642.88" y="-51.88" font-family="Times,serif" font-size="14.00">deep</text>
<text text-anchor="middle" x="2642.88" y="-36.88" font-family="Times,serif" font-size="14.00">forecasters</text>
</g>
<!-- integrations&#45;&gt;deep\nforecasters -->
<g id="edge15" class="edge">
<title>integrations&#45;&gt;deep\nforecasters</title>
<path fill="none" stroke="black" d="M3095.83,-126.41C2997.76,-124.5 2789.33,-117.92 2720.88,-96.17 2707.55,-91.93 2694.12,-85 2682.25,-77.74"/>
<polygon fill="black" stroke="black" points="2683.82,-74.59 2673.5,-72.17 2680.05,-80.49 2683.82,-74.59"/>
</g>
<!-- RT logistic\nregression -->
<g id="node21" class="node">
<title>RT logistic\nregression</title>
<ellipse fill="none" stroke="black" cx="2794.88" cy="-48.08" rx="65.11" ry="26.74"/>
<text text-anchor="middle" x="2794.88" y="-51.88" font-family="Times,serif" font-size="14.00">RT logistic</text>
<text text-anchor="middle" x="2794.88" y="-36.88" font-family="Times,serif" font-size="14.00">regression</text>
</g>
<!-- integrations&#45;&gt;RT logistic\nregression -->
<g id="edge16" class="edge">
<title>integrations&#45;&gt;RT logistic\nregression</title>
<path fill="none" stroke="black" d="M3095.61,-124.19C3026.7,-119.78 2909.45,-110.46 2868.88,-96.17 2856.42,-91.78 2843.9,-84.95 2832.79,-77.84"/>
<polygon fill="black" stroke="black" points="2834.48,-74.76 2824.22,-72.13 2830.6,-80.59 2834.48,-74.76"/>
</g>
<!-- RT decoding\nfrom Neuropixels -->
<g id="node22" class="node">
<title>RT decoding\nfrom Neuropixels</title>
<ellipse fill="none" stroke="black" cx="2977.88" cy="-48.08" rx="99.9" ry="26.74"/>
<text text-anchor="middle" x="2977.88" y="-51.88" font-family="Times,serif" font-size="14.00">RT decoding</text>
<text text-anchor="middle" x="2977.88" y="-36.88" font-family="Times,serif" font-size="14.00">from Neuropixels</text>
</g>
<!-- integrations&#45;&gt;RT decoding\nfrom Neuropixels -->
<g id="edge17" class="edge">
<title>integrations&#45;&gt;RT decoding\nfrom Neuropixels</title>
<path fill="none" stroke="black" d="M3110.58,-110.03C3088.73,-100 3060.68,-87.12 3036,-75.78"/>
<polygon fill="black" stroke="black" points="3037.28,-72.51 3026.73,-71.52 3034.36,-78.87 3037.28,-72.51"/>
</g>
<!-- RT HO\ndecoder -->
<g id="node23" class="node">
<title>RT HO\ndecoder</title>
<ellipse fill="none" stroke="black" cx="3147.88" cy="-48.08" rx="52.15" ry="26.74"/>
<text text-anchor="middle" x="3147.88" y="-51.88" font-family="Times,serif" font-size="14.00">RT HO</text>
<text text-anchor="middle" x="3147.88" y="-36.88" font-family="Times,serif" font-size="14.00">decoder</text>
</g>
<!-- integrations&#45;&gt;RT HO\ndecoder -->
<g id="edge18" class="edge">
<title>integrations&#45;&gt;RT HO\ndecoder</title>
<path fill="none" stroke="black" d="M3147.88,-109.84C3147.88,-102.55 3147.88,-93.79 3147.88,-85.22"/>
<polygon fill="black" stroke="black" points="3151.38,-84.97 3147.88,-74.97 3144.38,-84.97 3151.38,-84.97"/>
</g>
<!-- integration\nCLOCTools -->
<g id="node24" class="node">
<title>integration\nCLOCTools</title>
<ellipse fill="none" stroke="black" cx="3285.88" cy="-48.08" rx="67.76" ry="26.74"/>
<text text-anchor="middle" x="3285.88" y="-51.88" font-family="Times,serif" font-size="14.00">integration</text>
<text text-anchor="middle" x="3285.88" y="-36.88" font-family="Times,serif" font-size="14.00">CLOCTools</text>
</g>
<!-- integrations&#45;&gt;integration\nCLOCTools -->
<g id="edge19" class="edge">
<title>integrations&#45;&gt;integration\nCLOCTools</title>
<path fill="none" stroke="black" d="M3182.65,-110.09C3191.29,-105.69 3200.48,-100.86 3208.88,-96.17 3219.78,-90.08 3231.36,-83.22 3242.13,-76.65"/>
<polygon fill="black" stroke="black" points="3244.27,-79.45 3250.96,-71.24 3240.61,-73.48 3244.27,-79.45"/>
</g>
<!-- PLDS -->
<g id="node25" class="node">
<title>PLDS</title>
<ellipse fill="none" stroke="black" cx="3407.88" cy="-48.08" rx="36.29" ry="18"/>
<text text-anchor="middle" x="3407.88" y="-44.38" font-family="Times,serif" font-size="14.00">PLDS</text>
</g>
<!-- integrations&#45;&gt;PLDS -->
<g id="edge20" class="edge">
<title>integrations&#45;&gt;PLDS</title>
<path fill="none" stroke="black" d="M3200.08,-123.56C3254.39,-119.12 3335.31,-110.37 3362.88,-96.17 3373.39,-90.75 3382.83,-81.9 3390.31,-73.33"/>
<polygon fill="black" stroke="black" points="3393.24,-75.28 3396.86,-65.32 3387.82,-70.85 3393.24,-75.28"/>
</g>
<!-- real&#45;time\nspike sorting -->
<g id="node26" class="node">
<title>real&#45;time\nspike sorting</title>
<ellipse fill="none" stroke="black" cx="3539.88" cy="-48.08" rx="77.56" ry="26.74"/>
<text text-anchor="middle" x="3539.88" y="-51.88" font-family="Times,serif" font-size="14.00">real&#45;time</text>
<text text-anchor="middle" x="3539.88" y="-36.88" font-family="Times,serif" font-size="14.00">spike sorting</text>
</g>
<!-- integrations&#45;&gt;real&#45;time\nspike sorting -->
<g id="edge21" class="edge">
<title>integrations&#45;&gt;real&#45;time\nspike sorting</title>
<path fill="none" stroke="black" d="M3200.1,-128.03C3261.84,-127.65 3367.04,-122.59 3452.88,-96.17 3467.55,-91.65 3482.58,-84.55 3495.93,-77.22"/>
<polygon fill="black" stroke="black" points="3497.92,-80.12 3504.88,-72.13 3494.46,-74.03 3497.92,-80.12"/>
</g>
<!-- maintainability -->
<g id="node27" class="node">
<title>maintainability</title>
<polygon fill="none" stroke="black" points="3754.38,-146.17 3629.38,-146.17 3629.38,-110.17 3754.38,-110.17 3754.38,-146.17"/>
<text text-anchor="middle" x="3691.88" y="-124.47" font-family="Times,serif" font-size="14.00">maintainability</text>
</g>
<!-- Infer.NET -->
<g id="node28" class="node">
<title>Infer.NET</title>
<ellipse fill="none" stroke="black" cx="3691.88" cy="-48.08" rx="55.79" ry="18"/>
<text text-anchor="middle" x="3691.88" y="-44.38" font-family="Times,serif" font-size="14.00">Infer.NET</text>
</g>
<!-- maintainability&#45;&gt;Infer.NET -->
<g id="edge22" class="edge">
<title>maintainability&#45;&gt;Infer.NET</title>
<path fill="none" stroke="black" d="M3691.88,-109.84C3691.88,-99.96 3691.88,-87.37 3691.88,-76.22"/>
<polygon fill="black" stroke="black" points="3695.38,-76.1 3691.88,-66.1 3688.38,-76.1 3695.38,-76.1"/>
</g>
</g>
</svg>
