<?xml version="1.0" encoding="UTF-8" standalone="no"?>
<!DOCTYPE svg PUBLIC "-//W3C//DTD SVG 1.1//EN"
 "http://www.w3.org/Graphics/SVG/1.1/DTD/svg11.dtd">
<!-- Generated by graphviz version 2.43.0 (0)
 -->
<!-- Title: %3 Pages: 1 -->
<svg width="3881pt" height="156pt"
 viewBox="0.00 0.00 3881.38 156.17" xmlns="http://www.w3.org/2000/svg" xmlns:xlink="http://www.w3.org/1999/xlink">
<g id="graph0" class="graph" transform="scale(1 1) rotate(0) translate(4 152.17)">
<title>%3</title>
<polygon fill="white" stroke="transparent" points="-4,4 -4,-152.17 3877.38,-152.17 3877.38,4 -4,4"/>
<!-- documentation -->
<g id="node1" class="node">
<title>documentation</title>
<polygon fill="none" stroke="black" points="361.38,-147.17 238.38,-147.17 238.38,-111.17 361.38,-111.17 361.38,-147.17"/>
<text text-anchor="middle" x="299.88" y="-125.47" font-family="Times,serif" font-size="14.00">documentation</text>
</g>
<!-- scikit&#45;learn\nformat -->
<g id="node2" class="node">
<title>scikit&#45;learn\nformat</title>
<ellipse fill="none" stroke="black" cx="67.88" cy="-48.08" rx="67.76" ry="26.74"/>
<text text-anchor="middle" x="67.88" y="-51.88" font-family="Times,serif" font-size="14.00">scikit&#45;learn</text>
<text text-anchor="middle" x="67.88" y="-36.88" font-family="Times,serif" font-size="14.00">format</text>
</g>
<!-- documentation&#45;&gt;scikit&#45;learn\nformat -->
<g id="edge1" class="edge">
<title>documentation&#45;&gt;scikit&#45;learn\nformat</title>
<path fill="none" stroke="black" d="M238.11,-120.43C209.13,-115.54 174.53,-107.88 144.88,-96.17 132.34,-91.21 119.53,-84.27 108.05,-77.23"/>
<polygon fill="black" stroke="black" points="109.87,-74.25 99.55,-71.86 106.14,-80.16 109.87,-74.25"/>
</g>
<!-- for methods\ndevelopers -->
<g id="node3" class="node">
<title>for methods\ndevelopers</title>
<ellipse fill="none" stroke="black" cx="226.88" cy="-48.08" rx="72.66" ry="26.74"/>
<text text-anchor="middle" x="226.88" y="-51.88" font-family="Times,serif" font-size="14.00">for methods</text>
<text text-anchor="middle" x="226.88" y="-36.88" font-family="Times,serif" font-size="14.00">developers</text>
</g>
<!-- documentation&#45;&gt;for methods\ndevelopers -->
<g id="edge2" class="edge">
<title>documentation&#45;&gt;for methods\ndevelopers</title>
<path fill="none" stroke="black" d="M284.04,-111.01C276.02,-102.32 266.02,-91.48 256.63,-81.31"/>
<polygon fill="black" stroke="black" points="258.97,-78.69 249.62,-73.71 253.83,-83.43 258.97,-78.69"/>
</g>
<!-- video\ntutorials -->
<g id="node4" class="node">
<title>video\ntutorials</title>
<ellipse fill="none" stroke="black" cx="371.88" cy="-48.08" rx="54.39" ry="26.74"/>
<text text-anchor="middle" x="371.88" y="-51.88" font-family="Times,serif" font-size="14.00">video</text>
<text text-anchor="middle" x="371.88" y="-36.88" font-family="Times,serif" font-size="14.00">tutorials</text>
</g>
<!-- documentation&#45;&gt;video\ntutorials -->
<g id="edge3" class="edge">
<title>documentation&#45;&gt;video\ntutorials</title>
<path fill="none" stroke="black" d="M315.51,-111.01C323.69,-102.01 333.98,-90.72 343.51,-80.25"/>
<polygon fill="black" stroke="black" points="346.14,-82.56 350.28,-72.81 340.96,-77.85 346.14,-82.56"/>
</g>
<!-- case studies\nfor intelligent\nexp. control -->
<g id="node5" class="node">
<title>case studies\nfor intelligent\nexp. control</title>
<ellipse fill="none" stroke="black" cx="525.88" cy="-48.08" rx="81.13" ry="37.45"/>
<text text-anchor="middle" x="525.88" y="-59.38" font-family="Times,serif" font-size="14.00">case studies</text>
<text text-anchor="middle" x="525.88" y="-44.38" font-family="Times,serif" font-size="14.00">for intelligent</text>
<text text-anchor="middle" x="525.88" y="-29.38" font-family="Times,serif" font-size="14.00">exp. control</text>
</g>
<!-- documentation&#45;&gt;case studies\nfor intelligent\nexp. control -->
<g id="edge4" class="edge">
<title>documentation&#45;&gt;case studies\nfor intelligent\nexp. control</title>
<path fill="none" stroke="black" d="M361.64,-116.86C384.97,-111.72 411.51,-104.83 434.88,-96.17 445.46,-92.24 456.38,-87.38 466.83,-82.27"/>
<polygon fill="black" stroke="black" points="468.49,-85.35 475.86,-77.74 465.36,-79.09 468.49,-85.35"/>
</g>
<!-- training -->
<g id="node6" class="node">
<title>training</title>
<polygon fill="none" stroke="black" points="707.88,-147.17 633.88,-147.17 633.88,-111.17 707.88,-111.17 707.88,-147.17"/>
<text text-anchor="middle" x="670.88" y="-125.47" font-family="Times,serif" font-size="14.00">training</text>
</g>
<!-- Bonsai\ncourse -->
<g id="node7" class="node">
<title>Bonsai\ncourse</title>
<ellipse fill="none" stroke="black" cx="670.88" cy="-48.08" rx="45.92" ry="26.74"/>
<text text-anchor="middle" x="670.88" y="-51.88" font-family="Times,serif" font-size="14.00">Bonsai</text>
<text text-anchor="middle" x="670.88" y="-36.88" font-family="Times,serif" font-size="14.00">course</text>
</g>
<!-- training&#45;&gt;Bonsai\ncourse -->
<g id="edge5" class="edge">
<title>training&#45;&gt;Bonsai\ncourse</title>
<path fill="none" stroke="black" d="M670.88,-111.01C670.88,-103.5 670.88,-94.38 670.88,-85.48"/>
<polygon fill="black" stroke="black" points="674.38,-85.24 670.88,-75.24 667.38,-85.24 674.38,-85.24"/>
</g>
<!-- dissemination -->
<g id="node8" class="node">
<title>dissemination</title>
<polygon fill="none" stroke="black" points="932.88,-147.17 816.88,-147.17 816.88,-111.17 932.88,-111.17 932.88,-147.17"/>
<text text-anchor="middle" x="874.88" y="-125.47" font-family="Times,serif" font-size="14.00">dissemination</text>
</g>
<!-- Bonsai.ML\npaper -->
<g id="node9" class="node">
<title>Bonsai.ML\npaper</title>
<ellipse fill="none" stroke="black" cx="799.88" cy="-48.08" rx="65.11" ry="26.74"/>
<text text-anchor="middle" x="799.88" y="-51.88" font-family="Times,serif" font-size="14.00">Bonsai.ML</text>
<text text-anchor="middle" x="799.88" y="-36.88" font-family="Times,serif" font-size="14.00">paper</text>
</g>
<!-- dissemination&#45;&gt;Bonsai.ML\npaper -->
<g id="edge6" class="edge">
<title>dissemination&#45;&gt;Bonsai.ML\npaper</title>
<path fill="none" stroke="black" d="M858.61,-111.01C850.22,-102.16 839.72,-91.09 829.92,-80.76"/>
<polygon fill="black" stroke="black" points="832.37,-78.26 822.95,-73.41 827.3,-83.08 832.37,-78.26"/>
</g>
<!-- Bonsai\nconference -->
<g id="node10" class="node">
<title>Bonsai\nconference</title>
<ellipse fill="none" stroke="black" cx="949.88" cy="-48.08" rx="67.35" ry="26.74"/>
<text text-anchor="middle" x="949.88" y="-51.88" font-family="Times,serif" font-size="14.00">Bonsai</text>
<text text-anchor="middle" x="949.88" y="-36.88" font-family="Times,serif" font-size="14.00">conference</text>
</g>
<!-- dissemination&#45;&gt;Bonsai\nconference -->
<g id="edge7" class="edge">
<title>dissemination&#45;&gt;Bonsai\nconference</title>
<path fill="none" stroke="black" d="M891.16,-111.01C899.55,-102.16 910.05,-91.09 919.84,-80.76"/>
<polygon fill="black" stroke="black" points="922.47,-83.08 926.81,-73.41 917.39,-78.26 922.47,-83.08"/>
</g>
<!-- collaborations -->
<g id="node11" class="node">
<title>collaborations</title>
<polygon fill="none" stroke="black" points="1838.38,-147.17 1721.38,-147.17 1721.38,-111.17 1838.38,-111.17 1838.38,-147.17"/>
<text text-anchor="middle" x="1779.88" y="-125.47" font-family="Times,serif" font-size="14.00">collaborations</text>
</g>
<!-- RT decoding HO\nTB -->
<g id="node12" class="node">
<title>RT decoding HO\nTB</title>
<ellipse fill="none" stroke="black" cx="1128.88" cy="-48.08" rx="94.09" ry="26.74"/>
<text text-anchor="middle" x="1128.88" y="-51.88" font-family="Times,serif" font-size="14.00">RT decoding HO</text>
<text text-anchor="middle" x="1128.88" y="-36.88" font-family="Times,serif" font-size="14.00">TB</text>
</g>
<!-- collaborations&#45;&gt;RT decoding HO\nTB -->
<g id="edge8" class="edge">
<title>collaborations&#45;&gt;RT decoding HO\nTB</title>
<path fill="none" stroke="black" d="M1720.96,-127.47C1599.09,-125.57 1323.1,-118.83 1231.88,-96.17 1214.18,-91.77 1195.77,-84.37 1179.51,-76.73"/>
<polygon fill="black" stroke="black" points="1180.72,-73.43 1170.2,-72.22 1177.67,-79.73 1180.72,-73.43"/>
</g>
<!-- RT forecasting\nposition,HO\nAS -->
<g id="node13" class="node">
<title>RT forecasting\nposition,HO\nAS</title>
<ellipse fill="none" stroke="black" cx="1326.88" cy="-48.08" rx="85.62" ry="37.45"/>
<text text-anchor="middle" x="1326.88" y="-59.38" font-family="Times,serif" font-size="14.00">RT forecasting</text>
<text text-anchor="middle" x="1326.88" y="-44.38" font-family="Times,serif" font-size="14.00">position,HO</text>
<text text-anchor="middle" x="1326.88" y="-29.38" font-family="Times,serif" font-size="14.00">AS</text>
</g>
<!-- collaborations&#45;&gt;RT forecasting\nposition,HO\nAS -->
<g id="edge9" class="edge">
<title>collaborations&#45;&gt;RT forecasting\nposition,HO\nAS</title>
<path fill="none" stroke="black" d="M1721.14,-125.55C1634.43,-121.24 1476.54,-111.57 1421.88,-96.17 1410.26,-92.89 1398.35,-88.2 1387.06,-83.04"/>
<polygon fill="black" stroke="black" points="1388.29,-79.74 1377.75,-78.61 1385.28,-86.06 1388.29,-79.74"/>
</g>
<!-- RT decoding\nposition\n(hippocampus)\nED,JOK -->
<g id="node14" class="node">
<title>RT decoding\nposition\n(hippocampus)\nED,JOK</title>
<ellipse fill="none" stroke="black" cx="1516.88" cy="-48.08" rx="86.03" ry="48.17"/>
<text text-anchor="middle" x="1516.88" y="-66.88" font-family="Times,serif" font-size="14.00">RT decoding</text>
<text text-anchor="middle" x="1516.88" y="-51.88" font-family="Times,serif" font-size="14.00">position</text>
<text text-anchor="middle" x="1516.88" y="-36.88" font-family="Times,serif" font-size="14.00">(hippocampus)</text>
<text text-anchor="middle" x="1516.88" y="-21.88" font-family="Times,serif" font-size="14.00">ED,JOK</text>
</g>
<!-- collaborations&#45;&gt;RT decoding\nposition\n(hippocampus)\nED,JOK -->
<g id="edge10" class="edge">
<title>collaborations&#45;&gt;RT decoding\nposition\n(hippocampus)\nED,JOK</title>
<path fill="none" stroke="black" d="M1721.33,-120.86C1688.84,-115.83 1648.02,-107.91 1612.88,-96.17 1604.41,-93.34 1595.74,-89.91 1587.23,-86.2"/>
<polygon fill="black" stroke="black" points="1588.64,-83 1578.09,-82.09 1585.77,-89.38 1588.64,-83"/>
</g>
<!-- RT decoding\nposition\n(striatum)\nMSJ -->
<g id="node15" class="node">
<title>RT decoding\nposition\n(striatum)\nMSJ</title>
<ellipse fill="none" stroke="black" cx="1695.88" cy="-48.08" rx="74.49" ry="48.17"/>
<text text-anchor="middle" x="1695.88" y="-66.88" font-family="Times,serif" font-size="14.00">RT decoding</text>
<text text-anchor="middle" x="1695.88" y="-51.88" font-family="Times,serif" font-size="14.00">position</text>
<text text-anchor="middle" x="1695.88" y="-36.88" font-family="Times,serif" font-size="14.00">(striatum)</text>
<text text-anchor="middle" x="1695.88" y="-21.88" font-family="Times,serif" font-size="14.00">MSJ</text>
</g>
<!-- collaborations&#45;&gt;RT decoding\nposition\n(striatum)\nMSJ -->
<g id="edge11" class="edge">
<title>collaborations&#45;&gt;RT decoding\nposition\n(striatum)\nMSJ</title>
<path fill="none" stroke="black" d="M1761.66,-111.01C1756.63,-106.28 1750.94,-100.92 1745.05,-95.37"/>
<polygon fill="black" stroke="black" points="1747.2,-92.59 1737.52,-88.28 1742.4,-97.68 1747.2,-92.59"/>
</g>
<!-- RT neural\nlatents\nvisualisation\nJS -->
<g id="node16" class="node">
<title>RT neural\nlatents\nvisualisation\nJS</title>
<ellipse fill="none" stroke="black" cx="1863.88" cy="-48.08" rx="75.82" ry="48.17"/>
<text text-anchor="middle" x="1863.88" y="-66.88" font-family="Times,serif" font-size="14.00">RT neural</text>
<text text-anchor="middle" x="1863.88" y="-51.88" font-family="Times,serif" font-size="14.00">latents</text>
<text text-anchor="middle" x="1863.88" y="-36.88" font-family="Times,serif" font-size="14.00">visualisation</text>
<text text-anchor="middle" x="1863.88" y="-21.88" font-family="Times,serif" font-size="14.00">JS</text>
</g>
<!-- collaborations&#45;&gt;RT neural\nlatents\nvisualisation\nJS -->
<g id="edge12" class="edge">
<title>collaborations&#45;&gt;RT neural\nlatents\nvisualisation\nJS</title>
<path fill="none" stroke="black" d="M1798.11,-111.01C1803.13,-106.28 1808.83,-100.92 1814.72,-95.37"/>
<polygon fill="black" stroke="black" points="1817.37,-97.68 1822.25,-88.28 1812.57,-92.59 1817.37,-97.68"/>
</g>
<!-- close&#45;loop\noptogenetics\ncontrol\nGS -->
<g id="node17" class="node">
<title>close&#45;loop\noptogenetics\ncontrol\nGS</title>
<ellipse fill="none" stroke="black" cx="2033.88" cy="-48.08" rx="76.24" ry="48.17"/>
<text text-anchor="middle" x="2033.88" y="-66.88" font-family="Times,serif" font-size="14.00">close&#45;loop</text>
<text text-anchor="middle" x="2033.88" y="-51.88" font-family="Times,serif" font-size="14.00">optogenetics</text>
<text text-anchor="middle" x="2033.88" y="-36.88" font-family="Times,serif" font-size="14.00">control</text>
<text text-anchor="middle" x="2033.88" y="-21.88" font-family="Times,serif" font-size="14.00">GS</text>
</g>
<!-- collaborations&#45;&gt;close&#45;loop\noptogenetics\ncontrol\nGS -->
<g id="edge13" class="edge">
<title>collaborations&#45;&gt;close&#45;loop\noptogenetics\ncontrol\nGS</title>
<path fill="none" stroke="black" d="M1838.59,-121.73C1871.67,-116.96 1913.35,-108.99 1948.88,-96.17 1956.13,-93.55 1963.51,-90.36 1970.72,-86.9"/>
<polygon fill="black" stroke="black" points="1972.38,-89.98 1979.76,-82.38 1969.25,-83.72 1972.38,-89.98"/>
</g>
<!-- RT HMM+Logistic Regression\npredicting visit duration\nSL -->
<g id="node18" class="node">
<title>RT HMM+Logistic Regression\npredicting visit duration\nSL</title>
<ellipse fill="none" stroke="black" cx="2292.88" cy="-48.08" rx="164.51" ry="37.45"/>
<text text-anchor="middle" x="2292.88" y="-59.38" font-family="Times,serif" font-size="14.00">RT HMM+Logistic Regression</text>
<text text-anchor="middle" x="2292.88" y="-44.38" font-family="Times,serif" font-size="14.00">predicting visit duration</text>
<text text-anchor="middle" x="2292.88" y="-29.38" font-family="Times,serif" font-size="14.00">SL</text>
</g>
<!-- collaborations&#45;&gt;RT HMM+Logistic Regression\npredicting visit duration\nSL -->
<g id="edge14" class="edge">
<title>collaborations&#45;&gt;RT HMM+Logistic Regression\npredicting visit duration\nSL</title>
<path fill="none" stroke="black" d="M1838.48,-125.67C1906.39,-122.07 2021.45,-113.81 2118.88,-96.17 2140.88,-92.18 2164.15,-86.76 2186.26,-81"/>
<polygon fill="black" stroke="black" points="2187.22,-84.37 2196,-78.43 2185.44,-77.6 2187.22,-84.37"/>
</g>
<!-- RT GLM&#45;HMM\nAA -->
<g id="node19" class="node">
<title>RT GLM&#45;HMM\nAA</title>
<ellipse fill="none" stroke="black" cx="2560.88" cy="-48.08" rx="84.71" ry="26.74"/>
<text text-anchor="middle" x="2560.88" y="-51.88" font-family="Times,serif" font-size="14.00">RT GLM&#45;HMM</text>
<text text-anchor="middle" x="2560.88" y="-36.88" font-family="Times,serif" font-size="14.00">AA</text>
</g>
<!-- collaborations&#45;&gt;RT GLM&#45;HMM\nAA -->
<g id="edge15" class="edge">
<title>collaborations&#45;&gt;RT GLM&#45;HMM\nAA</title>
<path fill="none" stroke="black" d="M1838.55,-128.55C1982.31,-128.99 2348.97,-126.96 2466.88,-96.17 2483.12,-91.93 2499.81,-84.66 2514.54,-77.09"/>
<polygon fill="black" stroke="black" points="2516.25,-80.14 2523.44,-72.36 2512.97,-73.96 2516.25,-80.14"/>
</g>
<!-- integrations -->
<g id="node20" class="node">
<title>integrations</title>
<polygon fill="none" stroke="black" points="3214.88,-148.17 3098.88,-148.17 3098.88,-110.17 3214.88,-110.17 3214.88,-148.17"/>
<text text-anchor="start" x="3110.88" y="-132.97" font-family="Times,serif" font-size="14.00">integrations/</text>
<text text-anchor="start" x="3106.88" y="-117.97" font-family="Times,serif" font-size="14.00">developments</text>
</g>
<!-- RT GLM&#45;HMM -->
<g id="node21" class="node">
<title>RT GLM&#45;HMM</title>
<ellipse fill="none" stroke="black" cx="2741.88" cy="-48.08" rx="77.99" ry="18"/>
<text text-anchor="middle" x="2741.88" y="-44.38" font-family="Times,serif" font-size="14.00">RT GLM&#45;HMM</text>
</g>
<!-- integrations&#45;&gt;RT GLM&#45;HMM -->
<g id="edge16" class="edge">
<title>integrations&#45;&gt;RT GLM&#45;HMM</title>
<path fill="none" stroke="black" d="M3098.67,-125.27C3018.31,-120.79 2877.78,-111.11 2828.88,-96.17 2809.94,-90.38 2790.4,-80.24 2774.65,-70.86"/>
<polygon fill="black" stroke="black" points="2776.2,-67.7 2765.85,-65.46 2772.54,-73.67 2776.2,-67.7"/>
</g>
<!-- CLOCTools -->
<g id="node22" class="node">
<title>CLOCTools</title>
<ellipse fill="none" stroke="black" cx="2899.88" cy="-48.08" rx="61.99" ry="18"/>
<text text-anchor="middle" x="2899.88" y="-44.38" font-family="Times,serif" font-size="14.00">CLOCTools</text>
</g>
<!-- integrations&#45;&gt;CLOCTools -->
<g id="edge17" class="edge">
<title>integrations&#45;&gt;CLOCTools</title>
<path fill="none" stroke="black" d="M3098.64,-124.37C3061.1,-120.44 3011.84,-112.43 2970.88,-96.17 2955.58,-90.09 2940.16,-80.4 2927.62,-71.38"/>
<polygon fill="black" stroke="black" points="2929.55,-68.45 2919.44,-65.3 2925.38,-74.07 2929.55,-68.45"/>
</g>
<!-- PLDS -->
<g id="node23" class="node">
<title>PLDS</title>
<ellipse fill="none" stroke="black" cx="3015.88" cy="-48.08" rx="36.29" ry="18"/>
<text text-anchor="middle" x="3015.88" y="-44.38" font-family="Times,serif" font-size="14.00">PLDS</text>
</g>
<!-- integrations&#45;&gt;PLDS -->
<g id="edge18" class="edge">
<title>integrations&#45;&gt;PLDS</title>
<path fill="none" stroke="black" d="M3098.72,-113.82C3085.72,-109.26 3072.38,-103.46 3060.88,-96.17 3051.18,-90.02 3042.1,-81.34 3034.67,-73.11"/>
<polygon fill="black" stroke="black" points="3037.25,-70.75 3028.08,-65.44 3031.95,-75.31 3037.25,-70.75"/>
</g>
<!-- Infer.NET -->
<g id="node24" class="node">
<title>Infer.NET</title>
<ellipse fill="none" stroke="black" cx="3810.88" cy="-48.08" rx="55.79" ry="18"/>
<text text-anchor="middle" x="3810.88" y="-44.38" font-family="Times,serif" font-size="14.00">Infer.NET</text>
</g>
<!-- integrations&#45;&gt;Infer.NET -->
<g id="edge19" class="edge">
<title>integrations&#45;&gt;Infer.NET</title>
<path fill="none" stroke="black" d="M3215.1,-126.87C3353.97,-123.51 3696.81,-113.56 3745.88,-96.17 3760.68,-90.92 3775.04,-81.18 3786.48,-71.91"/>
<polygon fill="black" stroke="black" points="3788.9,-74.45 3794.27,-65.31 3784.37,-69.11 3788.9,-74.45"/>
</g>
<!-- RT spike sorting -->
<g id="node25" class="node">
<title>RT spike sorting</title>
<ellipse fill="none" stroke="black" cx="3156.88" cy="-48.08" rx="87.18" ry="18"/>
<text text-anchor="middle" x="3156.88" y="-44.38" font-family="Times,serif" font-size="14.00">RT spike sorting</text>
</g>
<!-- integrations&#45;&gt;RT spike sorting -->
<g id="edge20" class="edge">
<title>integrations&#45;&gt;RT spike sorting</title>
<path fill="none" stroke="black" d="M3156.88,-109.82C3156.88,-99.87 3156.88,-87.36 3156.88,-76.29"/>
<polygon fill="black" stroke="black" points="3160.38,-76.24 3156.88,-66.24 3153.38,-76.24 3160.38,-76.24"/>
</g>
<!-- RT adaptive estimation\nof psychometric curves -->
<g id="node26" class="node">
<title>RT adaptive estimation\nof psychometric curves</title>
<ellipse fill="none" stroke="black" cx="3390.88" cy="-48.08" rx="128.89" ry="26.74"/>
<text text-anchor="middle" x="3390.88" y="-51.88" font-family="Times,serif" font-size="14.00">RT adaptive estimation</text>
<text text-anchor="middle" x="3390.88" y="-36.88" font-family="Times,serif" font-size="14.00">of psychometric curves</text>
</g>
<!-- integrations&#45;&gt;RT adaptive estimation\nof psychometric curves -->
<g id="edge21" class="edge">
<title>integrations&#45;&gt;RT adaptive estimation\nof psychometric curves</title>
<path fill="none" stroke="black" d="M3211.23,-110.13C3224.84,-105.59 3239.4,-100.71 3252.88,-96.17 3273.49,-89.22 3295.8,-81.63 3316.36,-74.62"/>
<polygon fill="black" stroke="black" points="3317.64,-77.88 3325.98,-71.33 3315.38,-71.25 3317.64,-77.88"/>
</g>
<!-- RT decoding\nfrom Neuropixels -->
<g id="node27" class="node">
<title>RT decoding\nfrom Neuropixels</title>
<ellipse fill="none" stroke="black" cx="3636.88" cy="-48.08" rx="99.9" ry="26.74"/>
<text text-anchor="middle" x="3636.88" y="-51.88" font-family="Times,serif" font-size="14.00">RT decoding</text>
<text text-anchor="middle" x="3636.88" y="-36.88" font-family="Times,serif" font-size="14.00">from Neuropixels</text>
</g>
<!-- integrations&#45;&gt;RT decoding\nfrom Neuropixels -->
<g id="edge22" class="edge">
<title>integrations&#45;&gt;RT decoding\nfrom Neuropixels</title>
<path fill="none" stroke="black" d="M3215.2,-128.95C3289.27,-128.63 3420.5,-123.66 3528.88,-96.17 3547.2,-91.52 3566.36,-84.09 3583.37,-76.5"/>
<polygon fill="black" stroke="black" points="3584.95,-79.63 3592.59,-72.28 3582.04,-73.26 3584.95,-79.63"/>
</g>
<!-- maintainability -->
<g id="node28" class="node">
<title>maintainability</title>
<polygon fill="none" stroke="black" points="3873.38,-147.17 3748.38,-147.17 3748.38,-111.17 3873.38,-111.17 3873.38,-147.17"/>
<text text-anchor="middle" x="3810.88" y="-125.47" font-family="Times,serif" font-size="14.00">maintainability</text>
</g>
<!-- maintainability&#45;&gt;Infer.NET -->
<g id="edge23" class="edge">
<title>maintainability&#45;&gt;Infer.NET</title>
<path fill="none" stroke="black" d="M3810.88,-111.01C3810.88,-100.85 3810.88,-87.76 3810.88,-76.23"/>
<polygon fill="black" stroke="black" points="3814.38,-76.21 3810.88,-66.21 3807.38,-76.21 3814.38,-76.21"/>
</g>
</g>
</svg>
