<?xml version="1.0" encoding="UTF-8" standalone="no"?>
<!DOCTYPE svg PUBLIC "-//W3C//DTD SVG 1.1//EN"
 "http://www.w3.org/Graphics/SVG/1.1/DTD/svg11.dtd">
<!-- Generated by graphviz version 2.43.0 (0)
 -->
<!-- Title: %3 Pages: 1 -->
<svg width="1809pt" height="665pt"
 viewBox="0.00 0.00 1808.93 665.07" xmlns="http://www.w3.org/2000/svg" xmlns:xlink="http://www.w3.org/1999/xlink">
<g id="graph0" class="graph" transform="scale(1 1) rotate(0) translate(4 661.07)">
<title>%3</title>
<polygon fill="white" stroke="transparent" points="-4,4 -4,-661.07 1804.93,-661.07 1804.93,4 -4,4"/>
<!-- documentation -->
<g id="node1" class="node">
<title>documentation</title>
<polygon fill="none" stroke="black" points="711.06,-657.07 588.06,-657.07 588.06,-621.07 711.06,-621.07 711.06,-657.07"/>
<text text-anchor="middle" x="649.56" y="-635.37" font-family="Times,serif" font-size="14.00">documentation</text>
</g>
<!-- scikit&#45;learn\nformat -->
<g id="node7" class="node">
<title>scikit&#45;learn\nformat</title>
<ellipse fill="none" stroke="black" cx="401.56" cy="-540.6" rx="67.76" ry="26.74"/>
<text text-anchor="middle" x="401.56" y="-544.4" font-family="Times,serif" font-size="14.00">scikit&#45;learn</text>
<text text-anchor="middle" x="401.56" y="-529.4" font-family="Times,serif" font-size="14.00">format</text>
</g>
<!-- documentation&#45;&gt;scikit&#45;learn\nformat -->
<g id="edge1" class="edge">
<title>documentation&#45;&gt;scikit&#45;learn\nformat</title>
<path fill="none" stroke="black" d="M600.15,-621.05C567.2,-609.47 523.04,-593.5 484.56,-578.07 474.82,-574.17 464.52,-569.82 454.61,-565.53"/>
<polygon fill="black" stroke="black" points="455.84,-562.24 445.27,-561.44 453.03,-568.66 455.84,-562.24"/>
</g>
<!-- for methods\ndevelopers -->
<g id="node8" class="node">
<title>for methods\ndevelopers</title>
<ellipse fill="none" stroke="black" cx="571.56" cy="-540.6" rx="72.66" ry="26.74"/>
<text text-anchor="middle" x="571.56" y="-544.4" font-family="Times,serif" font-size="14.00">for methods</text>
<text text-anchor="middle" x="571.56" y="-529.4" font-family="Times,serif" font-size="14.00">developers</text>
</g>
<!-- documentation&#45;&gt;for methods\ndevelopers -->
<g id="edge2" class="edge">
<title>documentation&#45;&gt;for methods\ndevelopers</title>
<path fill="none" stroke="black" d="M635.62,-620.83C625.24,-607.99 610.77,-590.09 598.2,-574.55"/>
<polygon fill="black" stroke="black" points="600.84,-572.25 591.84,-566.68 595.4,-576.65 600.84,-572.25"/>
</g>
<!-- video\ntutorials -->
<g id="node9" class="node">
<title>video\ntutorials</title>
<ellipse fill="none" stroke="black" cx="727.56" cy="-540.6" rx="54.39" ry="26.74"/>
<text text-anchor="middle" x="727.56" y="-544.4" font-family="Times,serif" font-size="14.00">video</text>
<text text-anchor="middle" x="727.56" y="-529.4" font-family="Times,serif" font-size="14.00">tutorials</text>
</g>
<!-- documentation&#45;&gt;video\ntutorials -->
<g id="edge3" class="edge">
<title>documentation&#45;&gt;video\ntutorials</title>
<path fill="none" stroke="black" d="M663.5,-620.83C674.03,-607.81 688.77,-589.57 701.46,-573.88"/>
<polygon fill="black" stroke="black" points="704.31,-575.92 707.88,-565.94 698.87,-571.52 704.31,-575.92"/>
</g>
<!-- case studies\nfor intelligent\nexp. control -->
<g id="node10" class="node">
<title>case studies\nfor intelligent\nexp. control</title>
<ellipse fill="none" stroke="black" cx="892.56" cy="-540.6" rx="81.13" ry="37.45"/>
<text text-anchor="middle" x="892.56" y="-551.9" font-family="Times,serif" font-size="14.00">case studies</text>
<text text-anchor="middle" x="892.56" y="-536.9" font-family="Times,serif" font-size="14.00">for intelligent</text>
<text text-anchor="middle" x="892.56" y="-521.9" font-family="Times,serif" font-size="14.00">exp. control</text>
</g>
<!-- documentation&#45;&gt;case studies\nfor intelligent\nexp. control -->
<g id="edge4" class="edge">
<title>documentation&#45;&gt;case studies\nfor intelligent\nexp. control</title>
<path fill="none" stroke="black" d="M692.44,-621.05C728.42,-606.76 780.51,-586.08 822.52,-569.4"/>
<polygon fill="black" stroke="black" points="823.87,-572.63 831.87,-565.69 821.29,-566.13 823.87,-572.63"/>
</g>
<!-- training -->
<g id="node2" class="node">
<title>training</title>
<polygon fill="none" stroke="black" points="1085.56,-657.07 1011.56,-657.07 1011.56,-621.07 1085.56,-621.07 1085.56,-657.07"/>
<text text-anchor="middle" x="1048.56" y="-635.37" font-family="Times,serif" font-size="14.00">training</text>
</g>
<!-- Bonsai\ncourse -->
<g id="node11" class="node">
<title>Bonsai\ncourse</title>
<ellipse fill="none" stroke="black" cx="1048.56" cy="-540.6" rx="45.92" ry="26.74"/>
<text text-anchor="middle" x="1048.56" y="-544.4" font-family="Times,serif" font-size="14.00">Bonsai</text>
<text text-anchor="middle" x="1048.56" y="-529.4" font-family="Times,serif" font-size="14.00">course</text>
</g>
<!-- training&#45;&gt;Bonsai\ncourse -->
<g id="edge5" class="edge">
<title>training&#45;&gt;Bonsai\ncourse</title>
<path fill="none" stroke="black" d="M1048.56,-620.83C1048.56,-608.96 1048.56,-592.76 1048.56,-578.1"/>
<polygon fill="black" stroke="black" points="1052.06,-577.78 1048.56,-567.78 1045.06,-577.78 1052.06,-577.78"/>
</g>
<!-- dissemination -->
<g id="node3" class="node">
<title>dissemination</title>
<polygon fill="none" stroke="black" points="1326.56,-657.07 1210.56,-657.07 1210.56,-621.07 1326.56,-621.07 1326.56,-657.07"/>
<text text-anchor="middle" x="1268.56" y="-635.37" font-family="Times,serif" font-size="14.00">dissemination</text>
</g>
<!-- Bonsai.ML\npaper -->
<g id="node12" class="node">
<title>Bonsai.ML\npaper</title>
<ellipse fill="none" stroke="black" cx="1188.56" cy="-540.6" rx="65.11" ry="26.74"/>
<text text-anchor="middle" x="1188.56" y="-544.4" font-family="Times,serif" font-size="14.00">Bonsai.ML</text>
<text text-anchor="middle" x="1188.56" y="-529.4" font-family="Times,serif" font-size="14.00">paper</text>
</g>
<!-- dissemination&#45;&gt;Bonsai.ML\npaper -->
<g id="edge6" class="edge">
<title>dissemination&#45;&gt;Bonsai.ML\npaper</title>
<path fill="none" stroke="black" d="M1254.26,-620.83C1243.54,-607.9 1228.56,-589.83 1215.61,-574.21"/>
<polygon fill="black" stroke="black" points="1218.13,-571.77 1209.05,-566.31 1212.74,-576.24 1218.13,-571.77"/>
</g>
<!-- Bonsai\nconference -->
<g id="node13" class="node">
<title>Bonsai\nconference</title>
<ellipse fill="none" stroke="black" cx="1349.56" cy="-540.6" rx="67.35" ry="26.74"/>
<text text-anchor="middle" x="1349.56" y="-544.4" font-family="Times,serif" font-size="14.00">Bonsai</text>
<text text-anchor="middle" x="1349.56" y="-529.4" font-family="Times,serif" font-size="14.00">conference</text>
</g>
<!-- dissemination&#45;&gt;Bonsai\nconference -->
<g id="edge7" class="edge">
<title>dissemination&#45;&gt;Bonsai\nconference</title>
<path fill="none" stroke="black" d="M1283.04,-620.83C1293.89,-607.9 1309.06,-589.83 1322.18,-574.21"/>
<polygon fill="black" stroke="black" points="1325.06,-576.22 1328.81,-566.31 1319.7,-571.72 1325.06,-576.22"/>
</g>
<!-- collaborations -->
<g id="node4" class="node">
<title>collaborations</title>
<polygon fill="none" stroke="black" points="1107.06,-416.12 990.06,-416.12 990.06,-380.12 1107.06,-380.12 1107.06,-416.12"/>
<text text-anchor="middle" x="1048.56" y="-394.42" font-family="Times,serif" font-size="14.00">collaborations</text>
</g>
<!-- RT forecasting\nposition,HO\nAS -->
<g id="node14" class="node">
<title>RT forecasting\nposition,HO\nAS</title>
<ellipse fill="none" stroke="black" cx="85.56" cy="-278.43" rx="85.62" ry="37.45"/>
<text text-anchor="middle" x="85.56" y="-289.73" font-family="Times,serif" font-size="14.00">RT forecasting</text>
<text text-anchor="middle" x="85.56" y="-274.73" font-family="Times,serif" font-size="14.00">position,HO</text>
<text text-anchor="middle" x="85.56" y="-259.73" font-family="Times,serif" font-size="14.00">AS</text>
</g>
<!-- collaborations&#45;&gt;RT forecasting\nposition,HO\nAS -->
<g id="edge8" class="edge">
<title>collaborations&#45;&gt;RT forecasting\nposition,HO\nAS</title>
<path fill="none" stroke="black" d="M989.89,-396.47C821.06,-394.06 336.47,-383.2 185.56,-337.12 169.53,-332.22 153.3,-324.37 138.71,-316.01"/>
<polygon fill="black" stroke="black" points="140.24,-312.85 129.85,-310.76 136.67,-318.87 140.24,-312.85"/>
</g>
<!-- RT HMM+Logistic Regression\npredicting visit duration\nAeon -->
<g id="node15" class="node">
<title>RT HMM+Logistic Regression\npredicting visit duration\nAeon</title>
<ellipse fill="none" stroke="black" cx="364.56" cy="-278.43" rx="164.51" ry="37.45"/>
<text text-anchor="middle" x="364.56" y="-289.73" font-family="Times,serif" font-size="14.00">RT HMM+Logistic Regression</text>
<text text-anchor="middle" x="364.56" y="-274.73" font-family="Times,serif" font-size="14.00">predicting visit duration</text>
<text text-anchor="middle" x="364.56" y="-259.73" font-family="Times,serif" font-size="14.00">Aeon</text>
</g>
<!-- collaborations&#45;&gt;RT HMM+Logistic Regression\npredicting visit duration\nAeon -->
<g id="edge9" class="edge">
<title>collaborations&#45;&gt;RT HMM+Logistic Regression\npredicting visit duration\nAeon</title>
<path fill="none" stroke="black" d="M990.01,-393.85C895.28,-387.74 702.92,-371.92 543.56,-337.12 515.86,-331.07 486.36,-322.49 459.46,-313.79"/>
<polygon fill="black" stroke="black" points="460.27,-310.37 449.68,-310.58 458.09,-317.02 460.27,-310.37"/>
</g>
<!-- RT decoding HO\nfrom retrosplenial cortex\nDC,TBr -->
<g id="node16" class="node">
<title>RT decoding HO\nfrom retrosplenial cortex\nDC,TBr</title>
<ellipse fill="none" stroke="black" cx="696.56" cy="-278.43" rx="138.69" ry="37.45"/>
<text text-anchor="middle" x="696.56" y="-289.73" font-family="Times,serif" font-size="14.00">RT decoding HO</text>
<text text-anchor="middle" x="696.56" y="-274.73" font-family="Times,serif" font-size="14.00">from retrosplenial cortex</text>
<text text-anchor="middle" x="696.56" y="-259.73" font-family="Times,serif" font-size="14.00">DC,TBr</text>
</g>
<!-- collaborations&#45;&gt;RT decoding HO\nfrom retrosplenial cortex\nDC,TBr -->
<g id="edge10" class="edge">
<title>collaborations&#45;&gt;RT decoding HO\nfrom retrosplenial cortex\nDC,TBr</title>
<path fill="none" stroke="black" d="M989.89,-380.56C950.08,-369.05 896.38,-352.99 849.56,-337.12 827.9,-329.78 804.71,-321.34 783.11,-313.23"/>
<polygon fill="black" stroke="black" points="784.23,-309.91 773.64,-309.65 781.76,-316.46 784.23,-309.91"/>
</g>
<!-- RT decoding\ntheta sweeps\nED,JO -->
<g id="node17" class="node">
<title>RT decoding\ntheta sweeps\nED,JO</title>
<ellipse fill="none" stroke="black" cx="942.56" cy="-278.43" rx="78.48" ry="37.45"/>
<text text-anchor="middle" x="942.56" y="-289.73" font-family="Times,serif" font-size="14.00">RT decoding</text>
<text text-anchor="middle" x="942.56" y="-274.73" font-family="Times,serif" font-size="14.00">theta sweeps</text>
<text text-anchor="middle" x="942.56" y="-259.73" font-family="Times,serif" font-size="14.00">ED,JO</text>
</g>
<!-- collaborations&#45;&gt;RT decoding\ntheta sweeps\nED,JO -->
<g id="edge11" class="edge">
<title>collaborations&#45;&gt;RT decoding\ntheta sweeps\nED,JO</title>
<path fill="none" stroke="black" d="M1033.15,-380.01C1019.2,-364.52 998.09,-341.08 979.75,-320.73"/>
<polygon fill="black" stroke="black" points="982.18,-318.19 972.89,-313.1 976.98,-322.87 982.18,-318.19"/>
</g>
<!-- RT decoding\nposition\n(hippocampus,\n entorhinal cortex)\nTBe -->
<g id="node18" class="node">
<title>RT decoding\nposition\n(hippocampus,\n entorhinal cortex)\nTBe</title>
<ellipse fill="none" stroke="black" cx="1155.56" cy="-278.43" rx="105.22" ry="58.88"/>
<text text-anchor="middle" x="1155.56" y="-304.73" font-family="Times,serif" font-size="14.00">RT decoding</text>
<text text-anchor="middle" x="1155.56" y="-289.73" font-family="Times,serif" font-size="14.00">position</text>
<text text-anchor="middle" x="1155.56" y="-274.73" font-family="Times,serif" font-size="14.00">(hippocampus,</text>
<text text-anchor="middle" x="1155.56" y="-259.73" font-family="Times,serif" font-size="14.00"> entorhinal cortex)</text>
<text text-anchor="middle" x="1155.56" y="-244.73" font-family="Times,serif" font-size="14.00">TBe</text>
</g>
<!-- collaborations&#45;&gt;RT decoding\nposition\n(hippocampus,\n entorhinal cortex)\nTBe -->
<g id="edge12" class="edge">
<title>collaborations&#45;&gt;RT decoding\nposition\n(hippocampus,\n entorhinal cortex)\nTBe</title>
<path fill="none" stroke="black" d="M1064.12,-380.01C1074.18,-368.94 1087.93,-353.82 1101.71,-338.66"/>
<polygon fill="black" stroke="black" points="1104.33,-340.98 1108.46,-331.23 1099.15,-336.28 1104.33,-340.98"/>
</g>
<!-- RT decoding\nposition\n(striatum)\nET,MSJ -->
<g id="node19" class="node">
<title>RT decoding\nposition\n(striatum)\nET,MSJ</title>
<ellipse fill="none" stroke="black" cx="1364.56" cy="-278.43" rx="74.49" ry="48.17"/>
<text text-anchor="middle" x="1364.56" y="-297.23" font-family="Times,serif" font-size="14.00">RT decoding</text>
<text text-anchor="middle" x="1364.56" y="-282.23" font-family="Times,serif" font-size="14.00">position</text>
<text text-anchor="middle" x="1364.56" y="-267.23" font-family="Times,serif" font-size="14.00">(striatum)</text>
<text text-anchor="middle" x="1364.56" y="-252.23" font-family="Times,serif" font-size="14.00">ET,MSJ</text>
</g>
<!-- collaborations&#45;&gt;RT decoding\nposition\n(striatum)\nET,MSJ -->
<g id="edge13" class="edge">
<title>collaborations&#45;&gt;RT decoding\nposition\n(striatum)\nET,MSJ</title>
<path fill="none" stroke="black" d="M1107.17,-386.94C1154.05,-377.56 1220.77,-361.38 1275.56,-337.12 1286.11,-332.45 1296.82,-326.61 1306.99,-320.45"/>
<polygon fill="black" stroke="black" points="1309.14,-323.24 1315.77,-314.98 1305.43,-317.3 1309.14,-323.24"/>
</g>
<!-- RT neural\nlatents\nvisualisation\nJS -->
<g id="node20" class="node">
<title>RT neural\nlatents\nvisualisation\nJS</title>
<ellipse fill="none" stroke="black" cx="1543.56" cy="-278.43" rx="75.82" ry="48.17"/>
<text text-anchor="middle" x="1543.56" y="-297.23" font-family="Times,serif" font-size="14.00">RT neural</text>
<text text-anchor="middle" x="1543.56" y="-282.23" font-family="Times,serif" font-size="14.00">latents</text>
<text text-anchor="middle" x="1543.56" y="-267.23" font-family="Times,serif" font-size="14.00">visualisation</text>
<text text-anchor="middle" x="1543.56" y="-252.23" font-family="Times,serif" font-size="14.00">JS</text>
</g>
<!-- collaborations&#45;&gt;RT neural\nlatents\nvisualisation\nJS -->
<g id="edge14" class="edge">
<title>collaborations&#45;&gt;RT neural\nlatents\nvisualisation\nJS</title>
<path fill="none" stroke="black" d="M1107.14,-396.1C1187.66,-393.02 1335.92,-381.21 1453.56,-337.12 1464.69,-332.95 1475.89,-327.25 1486.42,-321.05"/>
<polygon fill="black" stroke="black" points="1488.39,-323.95 1495.1,-315.75 1484.74,-317.98 1488.39,-323.95"/>
</g>
<!-- close&#45;loop\noptogenetics\ncontrol\nGS -->
<g id="node21" class="node">
<title>close&#45;loop\noptogenetics\ncontrol\nGS</title>
<ellipse fill="none" stroke="black" cx="1724.56" cy="-278.43" rx="76.24" ry="48.17"/>
<text text-anchor="middle" x="1724.56" y="-297.23" font-family="Times,serif" font-size="14.00">close&#45;loop</text>
<text text-anchor="middle" x="1724.56" y="-282.23" font-family="Times,serif" font-size="14.00">optogenetics</text>
<text text-anchor="middle" x="1724.56" y="-267.23" font-family="Times,serif" font-size="14.00">control</text>
<text text-anchor="middle" x="1724.56" y="-252.23" font-family="Times,serif" font-size="14.00">GS</text>
</g>
<!-- collaborations&#45;&gt;close&#45;loop\noptogenetics\ncontrol\nGS -->
<g id="edge15" class="edge">
<title>collaborations&#45;&gt;close&#45;loop\noptogenetics\ncontrol\nGS</title>
<path fill="none" stroke="black" d="M1107.41,-394.52C1235.81,-388.28 1537.33,-370.47 1633.56,-337.12 1645.02,-333.15 1656.51,-327.49 1667.29,-321.25"/>
<polygon fill="black" stroke="black" points="1669.4,-324.06 1676.15,-315.89 1665.78,-318.07 1669.4,-324.06"/>
</g>
<!-- integrations -->
<g id="node5" class="node">
<title>integrations</title>
<polygon fill="none" stroke="black" points="994.56,-132.74 890.56,-132.74 890.56,-96.74 994.56,-96.74 994.56,-132.74"/>
<text text-anchor="middle" x="942.56" y="-111.04" font-family="Times,serif" font-size="14.00">integrations</text>
</g>
<!-- deep\nforecasters -->
<g id="node22" class="node">
<title>deep\nforecasters</title>
<ellipse fill="none" stroke="black" cx="342.56" cy="-26.87" rx="68.68" ry="26.74"/>
<text text-anchor="middle" x="342.56" y="-30.67" font-family="Times,serif" font-size="14.00">deep</text>
<text text-anchor="middle" x="342.56" y="-15.67" font-family="Times,serif" font-size="14.00">forecasters</text>
</g>
<!-- integrations&#45;&gt;deep\nforecasters -->
<g id="edge16" class="edge">
<title>integrations&#45;&gt;deep\nforecasters</title>
<path fill="none" stroke="black" d="M890.31,-110.91C796.41,-105.1 593.29,-89.29 425.56,-53.74 418.17,-52.17 410.49,-50.23 402.93,-48.12"/>
<polygon fill="black" stroke="black" points="403.66,-44.69 393.08,-45.26 401.71,-51.41 403.66,-44.69"/>
</g>
<!-- RT logistic\nregression -->
<g id="node23" class="node">
<title>RT logistic\nregression</title>
<ellipse fill="none" stroke="black" cx="505.56" cy="-26.87" rx="65.11" ry="26.74"/>
<text text-anchor="middle" x="505.56" y="-30.67" font-family="Times,serif" font-size="14.00">RT logistic</text>
<text text-anchor="middle" x="505.56" y="-15.67" font-family="Times,serif" font-size="14.00">regression</text>
</g>
<!-- integrations&#45;&gt;RT logistic\nregression -->
<g id="edge17" class="edge">
<title>integrations&#45;&gt;RT logistic\nregression</title>
<path fill="none" stroke="black" d="M890.34,-107.4C820.36,-98.35 692.55,-79.88 585.56,-53.74 578.54,-52.03 571.25,-50.01 564.04,-47.86"/>
<polygon fill="black" stroke="black" points="564.9,-44.47 554.31,-44.89 562.85,-51.16 564.9,-44.47"/>
</g>
<!-- CLOCTools -->
<g id="node24" class="node">
<title>CLOCTools</title>
<ellipse fill="none" stroke="black" cx="661.56" cy="-26.87" rx="61.99" ry="18"/>
<text text-anchor="middle" x="661.56" y="-23.17" font-family="Times,serif" font-size="14.00">CLOCTools</text>
</g>
<!-- integrations&#45;&gt;CLOCTools -->
<g id="edge18" class="edge">
<title>integrations&#45;&gt;CLOCTools</title>
<path fill="none" stroke="black" d="M890.56,-99.19C849.01,-87.41 789.36,-70.13 737.56,-53.74 728.39,-50.84 718.64,-47.62 709.29,-44.47"/>
<polygon fill="black" stroke="black" points="710.32,-41.12 699.73,-41.22 708.07,-47.75 710.32,-41.12"/>
</g>
<!-- RT decoding\nfrom Neuropixels -->
<g id="node25" class="node">
<title>RT decoding\nfrom Neuropixels</title>
<ellipse fill="none" stroke="black" cx="851.56" cy="-26.87" rx="99.9" ry="26.74"/>
<text text-anchor="middle" x="851.56" y="-30.67" font-family="Times,serif" font-size="14.00">RT decoding</text>
<text text-anchor="middle" x="851.56" y="-15.67" font-family="Times,serif" font-size="14.00">from Neuropixels</text>
</g>
<!-- integrations&#45;&gt;RT decoding\nfrom Neuropixels -->
<g id="edge19" class="edge">
<title>integrations&#45;&gt;RT decoding\nfrom Neuropixels</title>
<path fill="none" stroke="black" d="M924.14,-96.36C913.12,-85.96 898.75,-72.4 885.72,-60.1"/>
<polygon fill="black" stroke="black" points="887.9,-57.35 878.23,-53.04 883.1,-62.44 887.9,-57.35"/>
</g>
<!-- RT HO\ndecoder -->
<g id="node26" class="node">
<title>RT HO\ndecoder</title>
<ellipse fill="none" stroke="black" cx="1032.56" cy="-26.87" rx="52.15" ry="26.74"/>
<text text-anchor="middle" x="1032.56" y="-30.67" font-family="Times,serif" font-size="14.00">RT HO</text>
<text text-anchor="middle" x="1032.56" y="-15.67" font-family="Times,serif" font-size="14.00">decoder</text>
</g>
<!-- integrations&#45;&gt;RT HO\ndecoder -->
<g id="edge20" class="edge">
<title>integrations&#45;&gt;RT HO\ndecoder</title>
<path fill="none" stroke="black" d="M960.77,-96.36C972.39,-85.28 987.75,-70.63 1001.27,-57.72"/>
<polygon fill="black" stroke="black" points="1003.75,-60.2 1008.57,-50.76 998.92,-55.13 1003.75,-60.2"/>
</g>
<!-- PLDS -->
<g id="node27" class="node">
<title>PLDS</title>
<ellipse fill="none" stroke="black" cx="1150.56" cy="-26.87" rx="36.29" ry="18"/>
<text text-anchor="middle" x="1150.56" y="-23.17" font-family="Times,serif" font-size="14.00">PLDS</text>
</g>
<!-- integrations&#45;&gt;PLDS -->
<g id="edge21" class="edge">
<title>integrations&#45;&gt;PLDS</title>
<path fill="none" stroke="black" d="M991.19,-96.64C1022.47,-85.28 1063.81,-69.59 1099.56,-53.74 1105.46,-51.13 1111.65,-48.17 1117.6,-45.22"/>
<polygon fill="black" stroke="black" points="1119.33,-48.26 1126.68,-40.63 1116.18,-42.02 1119.33,-48.26"/>
</g>
<!-- RT spike\nsorting -->
<g id="node28" class="node">
<title>RT spike\nsorting</title>
<ellipse fill="none" stroke="black" cx="1271.56" cy="-26.87" rx="55.31" ry="26.74"/>
<text text-anchor="middle" x="1271.56" y="-30.67" font-family="Times,serif" font-size="14.00">RT spike</text>
<text text-anchor="middle" x="1271.56" y="-15.67" font-family="Times,serif" font-size="14.00">sorting</text>
</g>
<!-- integrations&#45;&gt;RT spike\nsorting -->
<g id="edge22" class="edge">
<title>integrations&#45;&gt;RT spike\nsorting</title>
<path fill="none" stroke="black" d="M994.66,-103.69C1047.33,-93.06 1130.81,-74.92 1201.56,-53.74 1207.51,-51.96 1213.68,-49.94 1219.78,-47.83"/>
<polygon fill="black" stroke="black" points="1221.02,-51.11 1229.28,-44.47 1218.69,-44.51 1221.02,-51.11"/>
</g>
<!-- RT spectral\nanalysis -->
<g id="node29" class="node">
<title>RT spectral\nanalysis</title>
<ellipse fill="none" stroke="black" cx="1424.56" cy="-26.87" rx="69.09" ry="26.74"/>
<text text-anchor="middle" x="1424.56" y="-30.67" font-family="Times,serif" font-size="14.00">RT spectral</text>
<text text-anchor="middle" x="1424.56" y="-15.67" font-family="Times,serif" font-size="14.00">analysis</text>
</g>
<!-- integrations&#45;&gt;RT spectral\nanalysis -->
<g id="edge23" class="edge">
<title>integrations&#45;&gt;RT spectral\nanalysis</title>
<path fill="none" stroke="black" d="M994.68,-108.48C1071.33,-100.16 1218.67,-81.96 1341.56,-53.74 1348.82,-52.07 1356.37,-50.09 1363.82,-47.97"/>
<polygon fill="black" stroke="black" points="1364.92,-51.29 1373.54,-45.12 1362.95,-44.57 1364.92,-51.29"/>
</g>
<!-- maintainability -->
<g id="node6" class="node">
<title>maintainability</title>
<polygon fill="none" stroke="black" points="1641.06,-132.74 1516.06,-132.74 1516.06,-96.74 1641.06,-96.74 1641.06,-132.74"/>
<text text-anchor="middle" x="1578.56" y="-111.04" font-family="Times,serif" font-size="14.00">maintainability</text>
</g>
<!-- Infer.NET -->
<g id="node30" class="node">
<title>Infer.NET</title>
<ellipse fill="none" stroke="black" cx="1578.56" cy="-26.87" rx="55.79" ry="18"/>
<text text-anchor="middle" x="1578.56" y="-23.17" font-family="Times,serif" font-size="14.00">Infer.NET</text>
</g>
<!-- maintainability&#45;&gt;Infer.NET -->
<g id="edge24" class="edge">
<title>maintainability&#45;&gt;Infer.NET</title>
<path fill="none" stroke="black" d="M1578.56,-96.36C1578.56,-84.53 1578.56,-68.63 1578.56,-55.12"/>
<polygon fill="black" stroke="black" points="1582.06,-54.93 1578.56,-44.93 1575.06,-54.93 1582.06,-54.93"/>
</g>
<!-- Bonsai\ncourse&#45;&gt;collaborations -->
<!-- RT decoding\ntheta sweeps\nED,JO&#45;&gt;integrations -->
</g>
</svg>
